<svg width="30" height="30" viewBox="0 0 30 30" version="1.1" xmlns="http://www.w3.org/2000/svg" xmlns:xlink="http://www.w3.org/1999/xlink">
<title>Vector</title>
<desc>Created using Figma</desc>
<g id="Canvas" transform="matrix(1.5 0 0 1.5 -147 -837)">
<g id="Vector">
<use xlink:href="#path0_fill" transform="translate(98 558)" fill="url(#paint0_linear)"/>
</g>
</g>
<defs>
<linearGradient id="paint0_linear" x1="0" y1="0" x2="1" y2="0" gradientUnits="userSpaceOnUse" gradientTransform="matrix(-18.9286 38.1178 -18.9286 -38.1178 20.1631 -8.54364)">
<stop offset="0" stop-color="#D4FFEC"/>
<stop offset="0.478729" stop-color="#57F2CC"/>
<stop offset="1" stop-color="#4596FB"/>
</linearGradient>
<path id="path0_fill" d="M 17.4786 16.6283C 19.0455 14.8624 20 12.541 20 10C 20 7.35621 18.9669 4.95069 17.2855 3.16069L 17.2855 3.16034C 17.2841 3.15828 17.2821 3.15759 17.281 3.15586C 15.5297 1.29414 13.0759 0.102414 10.3466 0.00896552L 10.3462 0.00862069L 10.1514 0.00344828C 10.101 0.00172414 10.0507 0 10 0C 9.94931 0 9.89897 0.00172414 9.84862 0.00344828L 9.65448 0.00862069L 9.65414 0.00896552C 6.92483 0.102414 4.47103 1.29414 2.71966 3.15586C 2.71828 3.15759 2.71621 3.15828 2.71517 3.16034C 2.71517 3.16034 2.71517 3.16069 2.71483 3.16103C 1.0331 4.95069 0 7.35621 0 10C 0 12.541 0.954483 14.8624 2.52138 16.6283C 2.52345 16.6314 2.52345 16.6348 2.52586 16.6379C 2.53207 16.6466 2.54103 16.6507 2.54759 16.6586C 4.30828 18.6269 6.83448 19.8948 9.65379 19.9914L 9.65414 19.9917L 9.84828 19.9969C 9.89897 19.9983 9.94931 20 10 20C 10.0507 20 10.101 19.9983 10.1514 19.9966L 10.3455 19.9914L 10.3459 19.991C 13.1683 19.8941 15.6972 18.6238 17.4579 16.6514C 17.4624 16.6455 17.4697 16.6438 17.4738 16.6376C 17.4766 16.6348 17.4766 16.6314 17.4786 16.6283ZM 0.698276 10.3448L 4.83724 10.3448C 4.87621 11.8066 5.16172 13.2269 5.67 14.5576C 4.68931 14.9124 3.75172 15.3883 2.8731 15.9821C 1.58103 14.4452 0.776897 12.4862 0.698276 10.3448ZM 3.06138 3.80103C 3.91931 4.35897 4.83276 4.80586 5.78552 5.13966C 5.20207 6.55586 4.87931 8.08276 4.83724 9.65517L 0.698276 9.65517C 0.78069 7.41138 1.65931 5.36828 3.06138 3.80103ZM 19.3017 9.65517L 15.1628 9.65517C 15.1207 8.08276 14.7979 6.55586 14.2145 5.13966C 15.1672 4.80586 16.0807 4.35897 16.9386 3.80103C 18.3407 5.36828 19.2193 7.41138 19.3017 9.65517ZM 9.65517 5.15966C 8.65828 5.13138 7.67966 4.98276 6.73414 4.71724C 7.4331 3.28345 8.42 1.98931 9.65517 0.911724L 9.65517 5.15966ZM 9.65517 5.84931L 9.65517 9.65517L 5.5269 9.65517C 5.56931 8.15586 5.88379 6.70172 6.44621 5.35345C 7.48276 5.65379 8.55897 5.82 9.65517 5.84931ZM 10.3448 5.84931C 11.441 5.82 12.5172 5.65414 13.5541 5.35345C 14.1166 6.70172 14.431 8.15586 14.4734 9.65517L 10.3448 9.65517L 10.3448 5.84931ZM 10.3448 5.15966L 10.3448 0.911724C 11.58 1.98931 12.5669 3.28345 13.2659 4.71724C 12.3203 4.98276 11.3417 5.13138 10.3448 5.15966ZM 13.9341 4.50759C 13.2717 3.11966 12.3524 1.85517 11.2141 0.771379C 13.2334 1.03552 15.0503 1.94862 16.4497 3.29483C 15.6552 3.79897 14.8124 4.20448 13.9341 4.50759ZM 6.06586 4.50759C 5.18759 4.20448 4.34483 3.79897 3.55069 3.29483C 4.94966 1.94862 6.7669 1.03552 8.78621 0.771379C 7.64759 1.85517 6.72828 3.11966 6.06586 4.50759ZM 5.5269 10.3448L 9.65517 10.3448L 9.65517 13.8062C 8.51483 13.8366 7.39759 14.0145 6.32379 14.3376C 5.83862 13.0772 5.56586 11.7307 5.5269 10.3448ZM 9.65517 14.4959L 9.65517 19.0883C 8.3331 17.9348 7.29655 16.5334 6.59172 14.979C 7.58034 14.6876 8.60724 14.5255 9.65517 14.4959ZM 10.3448 19.0883L 10.3448 14.4959C 11.3928 14.5252 12.4197 14.6876 13.4083 14.9786C 12.7034 16.5334 11.6669 17.9348 10.3448 19.0883ZM 10.3448 13.8062L 10.3448 10.3448L 14.4731 10.3448C 14.4341 11.7307 14.1614 13.0772 13.6759 14.3379C 12.6024 14.0145 11.4852 13.8366 10.3448 13.8062ZM 15.1628 10.3448L 19.3017 10.3448C 19.2231 12.4862 18.4193 14.4452 17.1269 15.9821C 16.2483 15.3883 15.3107 14.9124 14.33 14.5576C 14.8386 13.2269 15.1238 11.8066 15.1628 10.3448ZM 3.34172 16.4986C 4.15759 15.9566 5.02621 15.5207 5.93379 15.1948C 6.60448 16.6983 7.56724 18.0683 8.78586 19.2286C 6.66483 18.951 4.76655 17.9579 3.34172 16.4986ZM 11.2141 19.2286C 12.4328 18.0686 13.3955 16.6986 14.0662 15.1948C 14.9738 15.5207 15.8421 15.9566 16.6583 16.4986C 15.2334 17.9579 13.3352 18.951 11.2141 19.2286Z"/>
</defs>
</svg>
