<svg width="21" height="27" viewBox="0 0 21 27" version="1.1" xmlns="http://www.w3.org/2000/svg" xmlns:xlink="http://www.w3.org/1999/xlink">
<title>Vector</title>
<desc>Created using Figma</desc>
<g id="Canvas" transform="matrix(1.5 0 0 1.5 -238.5 -966)">
<g id="Vector">
<use xlink:href="#path0_fill" transform="matrix(0.699038 0.715084 -0.715084 0.699038 166.128 641.9)" fill="url(#paint0_linear)"/>
</g>
</g>
<defs>
<linearGradient id="paint0_linear" x1="0" y1="0" x2="1" y2="0" gradientUnits="userSpaceOnUse" gradientTransform="matrix(-13.5219 27.2586 -13.5219 -27.2586 14.4037 -6.10968)">
<stop offset="0" stop-color="#D4FFEC"/>
<stop offset="0.478729" stop-color="#57F2CC"/>
<stop offset="1" stop-color="#4596FB"/>
</linearGradient>
<path id="path0_fill" d="M 14.2816 5.74583C 14.2633 5.65707 14.2015 5.58315 14.1173 5.54969C 11.8041 4.62808 9.754 5.37028 9.16369 5.62739L 5.14946 2.21236C 5.28975 0.979955 4.62498 0.137125 4.5953 0.100433C 4.54701 0.0408093 4.47606 0.00438739 4.39971 7.07155e-05C 4.32362 -0.00154804 4.24835 0.0246218 4.19439 0.07885L 0.0789873 4.19426C 0.0244893 4.24848 -0.00410861 4.32349 0.000477858 4.40065C 0.00479453 4.47727 0.041756 4.54876 0.10192 4.59652C 0.850592 5.1906 1.81483 5.18116 2.18633 5.15094L 5.61836 9.18514C 5.38418 9.78677 4.66869 11.9559 5.53553 14.1323C 5.56898 14.2168 5.64264 14.2783 5.73167 14.2966C 5.74974 14.3004 5.76809 14.3023 5.78617 14.3023C 5.85712 14.3023 5.92592 14.2742 5.97691 14.2232L 9.90778 10.2924L 13.5689 13.9534C 13.6215 14.0061 13.6905 14.0325 13.7596 14.0325C 13.8287 14.0325 13.8977 14.0061 13.9503 13.9534C 14.0558 13.848 14.0558 13.6774 13.9503 13.572L 10.2893 9.91088L 14.2085 5.99134C 14.2725 5.92713 14.3 5.83486 14.2816 5.74583ZM 9.52009 9.91628L 5.8984 13.5382C 5.24092 11.3785 6.1663 9.26823 6.17629 9.24611C 6.21891 9.15088 6.20326 9.03972 6.13582 8.9604L 2.50442 4.69175C 2.45289 4.63105 2.37681 4.59679 2.2983 4.59679C 2.28454 4.59679 2.27051 4.59787 2.25675 4.60029C 2.24704 4.60191 1.4007 4.72764 0.693573 4.34264L 4.33576 0.700451C 4.49872 1.01233 4.71105 1.57997 4.59584 2.27819C 4.5802 2.37154 4.615 2.46624 4.68703 2.52748L 8.9457 6.15079C 9.02907 6.22147 9.1475 6.23415 9.24382 6.18532C 9.26459 6.17453 11.2343 5.18844 13.5251 5.91094L 9.52009 9.91628Z"/>
</defs>
</svg>
