<svg width="20" height="27" viewBox="0 0 20 27" version="1.1" xmlns="http://www.w3.org/2000/svg" xmlns:xlink="http://www.w3.org/1999/xlink">
<title>Vector</title>
<desc>Created using Figma</desc>
<g id="Canvas" transform="matrix(1.5 0 0 1.5 -238.5 -1405.5)">
<g id="Vector">
<use xlink:href="#path0_fill" transform="matrix(0.69904 0.715083 -0.715083 0.69904 166.067 935)" fill="url(#paint0_linear)"/>
</g>
</g>
<defs>
<linearGradient id="paint0_linear" x1="0" y1="0" x2="1" y2="0" gradientUnits="userSpaceOnUse" gradientTransform="matrix(-13.3101 26.8316 -13.3101 -26.8316 14.1781 -6.01398)">
<stop offset="0" stop-color="#D4FFEC"/>
<stop offset="0.478729" stop-color="#57F2CC"/>
<stop offset="1" stop-color="#4596FB"/>
</linearGradient>
<path id="path0_fill" d="M 14.058 5.65584C 14.0399 5.56847 13.9791 5.4957 13.8962 5.46277C 13.1654 5.17144 12.3905 5.02379 11.593 5.02379C 10.3499 5.02379 9.39063 5.37912 9.02017 5.53952L 5.0688 2.17771C 5.2069 0.964607 4.55254 0.134977 4.52333 0.0988603C 4.47579 0.0401701 4.40595 0.00431867 4.3308 6.96079e-05C 4.25591 -0.00152379 4.18181 0.0242361 4.1287 0.077615L 0.0777502 4.12856C 0.0241058 4.18194 -0.00404426 4.25577 0.000470373 4.33172C 0.00471944 4.40714 0.041102 4.47752 0.100323 4.52452C 0.679524 4.98395 1.38646 5.08062 1.87723 5.08062C 1.98664 5.08062 2.08012 5.07557 2.15156 5.07L 5.53009 9.04128C 5.29958 9.63349 4.5953 11.7686 5.44856 13.911C 5.48149 13.9941 5.55399 14.0546 5.64163 14.0727C 5.65942 14.0764 5.67748 14.0783 5.69528 14.0783C 5.76512 14.0783 5.83284 14.0507 5.88303 14.0005L 9.75233 10.1312L 13.3561 13.7349C 13.4079 13.7867 13.4758 13.8127 13.5438 13.8127C 13.6118 13.8127 13.6798 13.7867 13.7316 13.7349C 13.8354 13.6311 13.8354 13.4632 13.7316 13.3594L 10.1278 9.75565L 13.9857 5.8975C 14.0489 5.8343 14.076 5.74347 14.058 5.65584Z"/>
</defs>
</svg>
