<svg width="30" height="30" viewBox="0 0 30 30" version="1.1" xmlns="http://www.w3.org/2000/svg" xmlns:xlink="http://www.w3.org/1999/xlink">
<title>pin1</title>
<desc>Created using Figma</desc>
<g id="Canvas" transform="matrix(1.5 0 0 1.5 -1215 -868.5)">
<g id="pin1">
<g id="Vector">
<use xlink:href="#path0_fill" transform="matrix(-1 0 0 1 830 579)" fill="#333333"/>
</g>
</g>
</g>
<defs>
<path id="path0_fill" d="M 19.9922 8.03484C 19.9665 7.91072 19.88 7.80735 19.7622 7.76057C 18.7228 7.3467 17.6208 7.13694 16.4867 7.13694C 14.7188 7.13694 13.3547 7.64173 12.8278 7.8696L 7.20848 3.09372C 7.40487 1.37035 6.47429 0.191753 6.43275 0.140444C 6.36514 0.0570668 6.26582 0.00613523 6.15894 9.8887e-05C 6.05243 -0.00216474 5.94706 0.0344306 5.87153 0.110262L 0.110571 5.86516C 0.0342814 5.94099 -0.00575144 6.04587 0.00066893 6.15377C 0.00671163 6.26091 0.0584523 6.36089 0.142672 6.42767C 0.966368 7.08035 1.97172 7.21767 2.66965 7.21767C 2.82525 7.21767 2.95819 7.21051 3.05979 7.20258L 7.86449 12.8443C 7.53667 13.6856 6.53509 16.7189 7.74854 19.7623C 7.79538 19.8804 7.89848 19.9664 8.02311 19.9921C 8.04841 19.9974 8.07409 20 8.0994 20C 8.19872 20 8.29503 19.9608 8.36641 19.8895L 13.869 14.3926L 18.994 19.5122C 19.0677 19.5858 19.1643 19.6227 19.261 19.6227C 19.3577 19.6227 19.4544 19.5858 19.528 19.5122C 19.6757 19.3647 19.6757 19.1262 19.528 18.9787L 14.4031 13.8592L 19.8895 8.37816C 19.9793 8.28837 20.0179 8.15934 19.9922 8.03484Z"/>
</defs>
</svg>
