<svg width="680" height="225" viewBox="0 0 680 225" version="1.1" xmlns="http://www.w3.org/2000/svg" xmlns:xlink="http://www.w3.org/1999/xlink">
<g id="Canvas" fill="none">
<g id="Group">
<g id="Rectangle 2">
<path d="M 0 0L 453 0L 453 150L 0 150L 0 0Z" transform="scale(1.5)" fill="#F8F8F8"/>
</g>
<g id="NewsBlitz">
<path d="M 29.7687 17.1625C 29.6554 16.9637 29.5988 16.694 29.5988 16.3533C 29.5988 15.9842 29.6271 15.5726 29.6837 15.1183L 29.344 15.1183L 27.3481 26.6167L 19.2796 26.6167L 23.9508 0L 31.5522 0L 35.8838 9.45426C 35.9687 9.653 36.0112 9.93691 36.0112 10.306C 36.0112 10.6467 35.9828 11.0442 35.9262 11.4984L 36.2659 11.4984L 38.3043 0L 46.3729 0L 41.7016 26.6167L 34.1002 26.6167L 29.7687 17.1625ZM 18.0056 26.489L 0 24.5726L 18.3453 24.5726L 18.0056 26.489ZM 19.4494 18.2697L 1.44384 16.3533L 19.7891 16.3533L 19.4494 18.2697ZM 20.1713 14.1814L 2.16576 12.265L 20.5111 12.265L 20.1713 14.1814ZM 20.8933 10.0931L 2.88769 8.17666L 21.233 8.17666L 20.8933 10.0931ZM 21.6152 6.00473L 3.60961 4.08833L 21.9124 4.08833L 21.6152 6.00473ZM 18.7275 22.358L 0.721922 20.4416L 19.0672 20.4416L 18.7275 22.358ZM 22.2946 1.9164L 4.33153 0L 22.6344 0L 22.2946 1.9164Z" transform="translate(210 64.5) scale(1.5)" fill="url(#paint0_linear)"/>
<path d="M 55.9101 16.4917L 59.1906 16.4917C 59.2543 15.9594 59.2225 15.459 59.0951 14.9905C 58.9889 14.5008 58.7978 14.0749 58.5218 13.7129C 58.267 13.3509 57.9379 13.0635 57.5344 12.8506C 57.131 12.6376 56.6851 12.5312 56.1968 12.5312C 55.6659 12.5312 55.1563 12.6483 54.668 12.8825C 54.1796 13.0954 53.7443 13.4361 53.3622 13.9046C 53.0012 14.3517 52.7039 14.9267 52.4704 15.6293C 52.258 16.3107 52.1519 17.1199 52.1519 18.0568C 52.1519 19.9306 52.5872 21.4105 53.4577 22.4965C 54.3283 23.5611 55.4642 24.0935 56.8656 24.0935C 57.6088 24.0935 58.3201 24.0083 58.9995 23.8379C 59.7002 23.6463 60.5071 23.3375 61.4201 22.9117L 62.4393 25.5627C 61.3351 26.095 60.2841 26.4677 59.2862 26.6806C 58.3094 26.8935 57.3646 27 56.4516 27C 55.0926 27 53.9036 26.7551 52.8844 26.2654C 51.8652 25.7756 51.0159 25.1262 50.3365 24.317C 49.657 23.4866 49.1474 22.539 48.8077 21.4744C 48.4679 20.4097 48.2981 19.3024 48.2981 18.1526C 48.2981 16.8537 48.4998 15.6826 48.9032 14.6392C 49.3067 13.5958 49.8693 12.7121 50.5912 11.9882C 51.3344 11.2429 52.1943 10.6786 53.1711 10.2953C 54.169 9.91207 55.2625 9.72043 56.4516 9.72043C 57.5981 9.72043 58.6279 9.9653 59.541 10.455C 60.4752 10.9235 61.2184 11.573 61.7704 12.4034C 62.3437 13.2338 62.6941 14.2133 62.8215 15.3419C 62.9488 16.4491 62.8002 17.6416 62.3756 18.9192L 53.3303 18.9192C 53.5639 18.2378 53.893 17.6629 54.3176 17.1944C 54.7635 16.7259 55.2944 16.4917 55.9101 16.4917Z" transform="translate(210 64.5) scale(1.5)" fill="url(#paint1_linear)"/>
<path d="M 85.8698 26.6167L 81.7293 26.6167L 75.9009 10.1037L 80.0413 10.1037L 83.8633 23.1353L 87.6533 10.1037L 91.6664 10.1037L 85.8698 26.6167ZM 76.8882 22.5923L 75.2002 26.6167L 71.1553 26.6167L 65.3587 10.1037L 69.4673 10.1037L 73.2892 23.1353L 73.5122 22.2409L 76.0601 15.4058C 76.3149 15.789 76.5485 16.2681 76.7608 16.8431C 76.9732 17.3967 77.1218 18.0035 77.2067 18.6636C 77.3129 19.3024 77.3447 19.9625 77.3023 20.6439C 77.2598 21.3253 77.1218 21.9748 76.8882 22.5923Z" transform="translate(210 64.5) scale(1.5)" fill="url(#paint2_linear)"/>
<path d="M 93.0737 25.5946L 93.9974 22.9436C 94.9316 23.3482 95.7916 23.6356 96.5772 23.806C 97.3628 23.955 98.0953 24.0296 98.7748 24.0296C 99.6241 24.0296 100.25 23.8379 100.654 23.4547C 101.057 23.0714 101.259 22.6242 101.259 22.1132C 101.259 21.6021 101.068 21.1763 100.686 20.8356C 100.304 20.4949 99.8258 20.1861 99.2525 19.9093C 98.6792 19.6112 98.0635 19.3237 97.4053 19.0469C 96.747 18.7488 96.1313 18.4081 95.558 18.0248C 94.9847 17.6203 94.507 17.1305 94.1248 16.5556C 93.7426 15.9807 93.5515 15.2567 93.5515 14.3837C 93.5515 13.8726 93.6576 13.3509 93.87 12.8186C 94.0823 12.265 94.4114 11.7752 94.8573 11.3494C 95.3032 10.9022 95.8765 10.5402 96.5772 10.2634C 97.2779 9.9653 98.1272 9.81625 99.1251 9.81625C 99.8046 9.81625 100.516 9.86948 101.259 9.97595C 102.002 10.0824 102.862 10.306 103.839 10.6467L 102.915 13.2338C 102.151 12.9996 101.503 12.8399 100.972 12.7547C 100.442 12.6696 99.9214 12.627 99.4118 12.627C 98.7536 12.627 98.2227 12.776 97.8193 13.0741C 97.4371 13.3509 97.246 13.7555 97.246 14.2879C 97.246 14.7776 97.4371 15.1928 97.8193 15.5335C 98.2015 15.8742 98.6792 16.1936 99.2525 16.4917C 99.8258 16.7685 100.442 17.056 101.1 17.3541C 101.758 17.6522 102.374 18.0142 102.947 18.4401C 103.52 18.8446 103.998 19.345 104.38 19.9412C 104.762 20.5162 104.954 21.2295 104.954 22.0812C 104.954 22.7839 104.794 23.4334 104.476 24.0296C 104.179 24.6258 103.765 25.1475 103.234 25.5946C 102.724 26.0205 102.13 26.3506 101.45 26.5848C 100.792 26.819 100.102 26.9361 99.3799 26.9361C 98.5518 26.9361 97.6282 26.8616 96.609 26.7125C 95.6111 26.5635 94.4326 26.1909 93.0737 25.5946Z" transform="translate(210 64.5) scale(1.5)" fill="url(#paint3_linear)"/>
<path d="M 116.634 24.0615C 116.74 24.0828 116.825 24.0935 116.889 24.0935C 116.974 24.0935 117.069 24.0935 117.175 24.0935C 118.301 24.0935 119.246 23.7315 120.01 23.0075C 120.774 22.2835 121.157 21.3147 121.157 20.1009C 121.157 19.3983 121.008 18.7808 120.711 18.2484C 120.413 17.7161 120.01 17.2689 119.5 16.9069C 118.991 16.545 118.386 16.2681 117.685 16.0765C 116.984 15.8849 116.23 15.789 115.424 15.789L 112.239 15.789L 112.239 26.6167L 108.321 26.6167L 108.321 3.71569C 109.086 3.58793 109.776 3.48147 110.391 3.39629C 111.007 3.28983 111.591 3.20465 112.143 3.14077C 112.695 3.07689 113.237 3.03431 113.767 3.01301C 114.298 2.99172 114.85 2.98107 115.424 2.98107C 116.825 2.98107 118.057 3.14077 119.118 3.46017C 120.18 3.77957 121.061 4.22674 121.762 4.80166C 122.484 5.35528 123.025 6.02603 123.386 6.81388C 123.747 7.58044 123.927 8.43218 123.927 9.36909C 123.927 10.1569 123.694 10.9661 123.227 11.7965C 122.781 12.627 122.165 13.2871 121.379 13.7768L 120.456 14.224L 121.348 14.4476C 122.537 14.9373 123.492 15.6932 124.214 16.7153C 124.936 17.7374 125.297 18.8553 125.297 20.069C 125.297 20.8994 125.116 21.7299 124.756 22.5603C 124.395 23.3695 123.874 24.1041 123.195 24.7642C 122.537 25.403 121.719 25.9353 120.742 26.3612C 119.787 26.7658 118.704 26.9681 117.494 26.9681C 117.197 26.9681 116.899 26.9574 116.602 26.9361C 116.326 26.9361 116.039 26.9148 115.742 26.8722C 115.445 26.8297 115.116 26.7658 114.755 26.6806C 114.394 26.6167 113.98 26.5315 113.513 26.4251C 113.64 26.1483 113.799 25.8715 113.99 25.5946C 114.181 25.2965 114.404 25.0304 114.659 24.7961C 114.914 24.5619 115.201 24.3809 115.519 24.2532C 115.859 24.1041 116.23 24.0402 116.634 24.0615ZM 112.239 13.1061L 115.424 13.1061C 116.061 13.1061 116.645 13.0209 117.175 12.8506C 117.727 12.6589 118.205 12.4034 118.609 12.084C 119.012 11.7433 119.32 11.3494 119.532 10.9022C 119.766 10.4338 119.883 9.93336 119.883 9.40103C 119.883 8.95386 119.798 8.528 119.628 8.12342C 119.458 7.69756 119.182 7.32492 118.8 7.00552C 118.439 6.66483 117.972 6.39866 117.398 6.20702C 116.846 5.99409 116.188 5.88762 115.424 5.88762C 114.85 5.88762 114.32 5.90891 113.831 5.9515C 113.343 5.97279 112.812 6.01538 112.239 6.07926L 112.239 13.1061Z" transform="translate(210 64.5) scale(1.5)" fill="url(#paint4_linear)"/>
<path d="M 133.198 2.40615L 133.198 26.6167L 129.344 26.6167L 129.344 2.40615L 133.198 2.40615Z" transform="translate(210 64.5) scale(1.5)" fill="url(#paint5_linear)"/>
<path d="M 137.449 5.3127C 137.449 4.63131 137.672 4.06703 138.118 3.61987C 138.564 3.15142 139.116 2.91719 139.774 2.91719C 140.453 2.91719 141.016 3.15142 141.462 3.61987C 141.908 4.06703 142.131 4.63131 142.131 5.3127C 142.131 5.97279 141.908 6.53707 141.462 7.00552C 141.016 7.45268 140.453 7.67626 139.774 7.67626C 139.116 7.67626 138.564 7.45268 138.118 7.00552C 137.672 6.53707 137.449 5.97279 137.449 5.3127ZM 141.749 26.6167L 137.831 26.6167L 137.831 10.1037L 141.749 10.1037L 141.749 26.6167Z" transform="translate(210 64.5) scale(1.5)" fill="url(#paint6_linear)"/>
<path d="M 156.765 12.9144L 155.173 12.9144C 154.748 12.9144 154.366 12.8293 154.026 12.6589C 153.708 12.4886 153.432 12.2756 153.198 12.0201C 152.965 11.7433 152.763 11.4452 152.593 11.1258C 152.423 10.7851 152.285 10.4444 152.179 10.1037L 156.765 10.1037L 156.765 12.9144ZM 147.401 20.3884L 147.401 12.9144L 144.662 12.9144L 144.662 10.8064L 147.401 10.1037L 147.401 6.07926L 151.096 4.86554L 151.096 20.5162C 151.096 21.6021 151.319 22.4752 151.765 23.1353C 152.232 23.7953 152.848 24.1254 153.612 24.1254C 153.952 24.1254 154.313 24.0935 154.695 24.0296C 155.098 23.9444 155.576 23.8166 156.128 23.6463L 156.956 26.2015C 156.149 26.4783 155.47 26.6806 154.918 26.8084C 154.387 26.9361 153.856 27 153.326 27C 151.393 27 149.918 26.4357 148.898 25.3072C 147.9 24.1573 147.401 22.5177 147.401 20.3884Z" transform="translate(210 64.5) scale(1.5)" fill="url(#paint7_linear)"/>
<path d="M 160.216 12.8186L 160.216 10.1037L 171.873 10.1037L 171.873 11.7327L 164.675 22.7839C 164.611 22.8904 164.547 22.9968 164.484 23.1033C 164.42 23.1885 164.356 23.2843 164.292 23.3908L 163.783 23.9338L 164.515 23.8379L 172 23.8379L 172 26.6167L 159.292 26.6167L 159.292 24.9878L 166.968 13.2658L 167.446 12.7228L 166.777 12.8186L 160.216 12.8186Z" transform="translate(210 64.5) scale(1.5)" fill="url(#paint8_linear)"/>
</g>
<g id="failed to fetch data from API">
<path d="M 0.9 14.565L 0.9 6.405C 0.9 5.625 1.16 4.965 1.68 4.425C 2.21 3.875 2.835 3.6 3.555 3.6L 4.08 3.6C 4.24 3.6 4.365 3.655 4.455 3.765C 4.545 3.875 4.59 4.005 4.59 4.155C 4.59 4.305 4.545 4.435 4.455 4.545C 4.365 4.645 4.24 4.695 4.08 4.695L 3.765 4.695C 3.305 4.695 2.92 4.85 2.61 5.16C 2.31 5.47 2.155 5.85 2.145 6.3L 2.145 7.89L 4.2 7.89C 4.32 7.89 4.415 7.94 4.485 8.04C 4.555 8.14 4.59 8.255 4.59 8.385C 4.59 8.515 4.555 8.63 4.485 8.73C 4.415 8.82 4.32 8.865 4.2 8.865L 2.145 8.865L 2.145 14.565C 2.145 14.685 2.08 14.79 1.95 14.88C 1.83 14.96 1.68 15 1.5 15C 1.33 15 1.185 14.96 1.065 14.88C 0.955 14.8 0.9 14.695 0.9 14.565ZM 5.15145 13.125C 5.15145 12.345 5.45145 11.805 6.05145 11.505C 6.65145 11.195 7.52145 11.04 8.66145 11.04L 9.38145 11.04L 9.38145 10.725C 9.38145 10.225 9.24145 9.79 8.96145 9.42C 8.69145 9.05 8.28145 8.865 7.73145 8.865C 7.31145 8.865 6.94145 8.94 6.62145 9.09C 6.30145 9.23 6.12645 9.3 6.09645 9.3C 5.95645 9.3 5.84145 9.235 5.75145 9.105C 5.67145 8.965 5.63145 8.82 5.63145 8.67C 5.63145 8.44 5.85645 8.24 6.30645 8.07C 6.76645 7.89 7.25145 7.8 7.76145 7.8C 8.74145 7.8 9.46145 8.08 9.92145 8.64C 10.3914 9.19 10.6264 9.88 10.6264 10.71L 10.6264 14.55C 10.6264 14.68 10.5664 14.79 10.4464 14.88C 10.3364 14.96 10.1914 15 10.0114 15C 9.85145 15 9.71645 14.96 9.60645 14.88C 9.49645 14.79 9.44145 14.68 9.44145 14.55L 9.44145 13.95C 8.76145 14.73 8.00645 15.12 7.17645 15.12C 6.57645 15.12 6.08645 14.95 5.70645 14.61C 5.33645 14.27 5.15145 13.775 5.15145 13.125ZM 6.41145 12.99C 6.41145 13.36 6.51645 13.64 6.72645 13.83C 6.93645 14.02 7.21645 14.115 7.56645 14.115C 7.98645 14.115 8.39145 13.95 8.78145 13.62C 9.18145 13.28 9.38145 12.935 9.38145 12.585L 9.38145 11.805L 8.85645 11.805C 8.56645 11.805 8.31645 11.815 8.10645 11.835C 7.89645 11.845 7.67645 11.875 7.44645 11.925C 7.22645 11.965 7.04145 12.03 6.89145 12.12C 6.75145 12.2 6.63645 12.315 6.54645 12.465C 6.45645 12.605 6.41145 12.78 6.41145 12.99ZM 12.4001 5.73C 12.2501 5.58 12.1751 5.41 12.1751 5.22C 12.1751 5.03 12.2501 4.865 12.4001 4.725C 12.5501 4.585 12.7351 4.515 12.9551 4.515C 13.1651 4.515 13.3451 4.585 13.4951 4.725C 13.6451 4.865 13.7201 5.03 13.7201 5.22C 13.7201 5.41 13.6451 5.58 13.4951 5.73C 13.3451 5.87 13.1651 5.94 12.9551 5.94C 12.7451 5.94 12.5601 5.87 12.4001 5.73ZM 12.3401 14.55L 12.3401 8.325C 12.3401 8.195 12.4001 8.09 12.5201 8.01C 12.6401 7.93 12.7851 7.89 12.9551 7.89C 13.1351 7.89 13.2851 7.93 13.4051 8.01C 13.5251 8.09 13.5851 8.195 13.5851 8.325L 13.5851 14.55C 13.5851 14.66 13.5201 14.765 13.3901 14.865C 13.2701 14.955 13.1251 15 12.9551 15C 12.7851 15 12.6401 14.955 12.5201 14.865C 12.4001 14.775 12.3401 14.67 12.3401 14.55ZM 15.4927 14.55L 15.4927 4.035C 15.4927 3.905 15.5477 3.8 15.6577 3.72C 15.7777 3.64 15.9277 3.6 16.1077 3.6C 16.2877 3.6 16.4377 3.64 16.5577 3.72C 16.6777 3.8 16.7377 3.905 16.7377 4.035L 16.7377 14.55C 16.7377 14.66 16.6727 14.765 16.5427 14.865C 16.4227 14.955 16.2777 15 16.1077 15C 15.9377 15 15.7927 14.955 15.6727 14.865C 15.5527 14.775 15.4927 14.67 15.4927 14.55ZM 18.3689 12.21L 18.3689 10.635C 18.3689 9.865 18.6589 9.2 19.2389 8.64C 19.8289 8.08 20.5339 7.8 21.3539 7.8C 22.1339 7.8 22.8089 8.065 23.3789 8.595C 23.9489 9.115 24.2339 9.77 24.2339 10.56C 24.2339 10.85 24.1989 11.085 24.1289 11.265C 24.0589 11.435 23.9489 11.56 23.7989 11.64C 23.6589 11.71 23.5239 11.755 23.3939 11.775C 23.2739 11.795 23.1089 11.805 22.8989 11.805L 19.6139 11.805L 19.6139 12.255C 19.6139 12.805 19.8089 13.245 20.1989 13.575C 20.5989 13.905 21.1139 14.07 21.7439 14.07C 22.0739 14.07 22.3589 14.02 22.5989 13.92C 22.8489 13.82 23.0489 13.725 23.1989 13.635C 23.3489 13.535 23.4689 13.485 23.5589 13.485C 23.6989 13.485 23.8189 13.55 23.9189 13.68C 24.0189 13.8 24.0689 13.925 24.0689 14.055C 24.0689 14.285 23.8389 14.52 23.3789 14.76C 22.9289 15 22.3689 15.12 21.6989 15.12C 20.7189 15.12 19.9189 14.855 19.2989 14.325C 18.6789 13.785 18.3689 13.08 18.3689 12.21ZM 19.6139 10.965L 22.3889 10.965C 22.6489 10.965 22.8239 10.935 22.9139 10.875C 23.0039 10.805 23.0489 10.675 23.0489 10.485C 23.0489 10.035 22.8839 9.64 22.5539 9.3C 22.2239 8.96 21.8189 8.79 21.3389 8.79C 20.8689 8.79 20.4639 8.95 20.1239 9.27C 19.7839 9.58 19.6139 9.965 19.6139 10.425L 19.6139 10.965ZM 25.3416 12.21L 25.3416 10.68C 25.3416 9.89 25.6066 9.215 26.1366 8.655C 26.6666 8.085 27.2966 7.8 28.0266 7.8C 28.4766 7.8 28.8716 7.91 29.2116 8.13C 29.5516 8.35 29.8116 8.62 29.9916 8.94L 29.9916 4.035C 29.9916 3.905 30.0516 3.8 30.1716 3.72C 30.2916 3.64 30.4416 3.6 30.6216 3.6C 30.8016 3.6 30.9466 3.64 31.0566 3.72C 31.1766 3.8 31.2366 3.905 31.2366 4.035L 31.2366 14.55C 31.2366 14.67 31.1766 14.775 31.0566 14.865C 30.9366 14.955 30.7916 15 30.6216 15C 30.4716 15 30.3366 14.955 30.2166 14.865C 30.1066 14.775 30.0516 14.67 30.0516 14.55L 30.0516 13.95C 29.8816 14.27 29.6066 14.545 29.2266 14.775C 28.8466 15.005 28.4316 15.12 27.9816 15.12C 27.2816 15.12 26.6666 14.825 26.1366 14.235C 25.6066 13.645 25.3416 12.97 25.3416 12.21ZM 26.5866 12.21C 26.5866 12.67 26.7566 13.085 27.0966 13.455C 27.4366 13.815 27.8316 13.995 28.2816 13.995C 28.7216 13.995 29.1166 13.83 29.4666 13.5C 29.8166 13.16 29.9916 12.865 29.9916 12.615L 29.9916 10.68C 29.9916 10.16 29.8216 9.74 29.4816 9.42C 29.1416 9.09 28.7466 8.925 28.2966 8.925C 27.8366 8.925 27.4366 9.105 27.0966 9.465C 26.7566 9.825 26.5866 10.23 26.5866 10.68L 26.5866 12.21ZM 35.9966 12.735L 35.9966 5.01C 35.9966 4.89 36.0616 4.79 36.1916 4.71C 36.3216 4.62 36.4616 4.575 36.6116 4.575C 36.7716 4.575 36.9166 4.62 37.0466 4.71C 37.1766 4.79 37.2416 4.89 37.2416 5.01L 37.2416 7.89L 39.1316 7.89C 39.2416 7.89 39.3316 7.94 39.4016 8.04C 39.4716 8.14 39.5066 8.255 39.5066 8.385C 39.5066 8.515 39.4716 8.63 39.4016 8.73C 39.3316 8.82 39.2416 8.865 39.1316 8.865L 37.2416 8.865L 37.2416 12.735C 37.2416 13.165 37.3316 13.47 37.5116 13.65C 37.7016 13.82 38.0266 13.905 38.4866 13.905L 38.9516 13.905C 39.1216 13.905 39.2516 13.96 39.3416 14.07C 39.4416 14.17 39.4916 14.295 39.4916 14.445C 39.4916 14.595 39.4416 14.725 39.3416 14.835C 39.2416 14.945 39.1116 15 38.9516 15L 38.4866 15C 36.8266 15 35.9966 14.245 35.9966 12.735ZM 40.283 12.21L 40.283 10.68C 40.283 9.91 40.573 9.24 41.153 8.67C 41.743 8.09 42.438 7.8 43.238 7.8C 44.038 7.8 44.733 8.085 45.323 8.655C 45.913 9.225 46.208 9.9 46.208 10.68L 46.208 12.21C 46.208 12.97 45.908 13.645 45.308 14.235C 44.718 14.825 44.028 15.12 43.238 15.12C 42.448 15.12 41.758 14.83 41.168 14.25C 40.578 13.66 40.283 12.98 40.283 12.21ZM 41.528 12.21C 41.528 12.68 41.698 13.095 42.038 13.455C 42.378 13.815 42.778 13.995 43.238 13.995C 43.708 13.995 44.113 13.815 44.453 13.455C 44.793 13.085 44.963 12.67 44.963 12.21L 44.963 10.68C 44.963 10.23 44.793 9.825 44.453 9.465C 44.113 9.105 43.708 8.925 43.238 8.925C 42.768 8.925 42.363 9.105 42.023 9.465C 41.693 9.825 41.528 10.23 41.528 10.68L 41.528 12.21ZM 50.7193 14.565L 50.7193 6.405C 50.7193 5.625 50.9793 4.965 51.4993 4.425C 52.0293 3.875 52.6543 3.6 53.3743 3.6L 53.8993 3.6C 54.0593 3.6 54.1843 3.655 54.2743 3.765C 54.3643 3.875 54.4093 4.005 54.4093 4.155C 54.4093 4.305 54.3643 4.435 54.2743 4.545C 54.1843 4.645 54.0593 4.695 53.8993 4.695L 53.5843 4.695C 53.1243 4.695 52.7393 4.85 52.4293 5.16C 52.1293 5.47 51.9743 5.85 51.9643 6.3L 51.9643 7.89L 54.0193 7.89C 54.1393 7.89 54.2343 7.94 54.3043 8.04C 54.3743 8.14 54.4093 8.255 54.4093 8.385C 54.4093 8.515 54.3743 8.63 54.3043 8.73C 54.2343 8.82 54.1393 8.865 54.0193 8.865L 51.9643 8.865L 51.9643 14.565C 51.9643 14.685 51.8993 14.79 51.7693 14.88C 51.6493 14.96 51.4993 15 51.3193 15C 51.1493 15 51.0043 14.96 50.8843 14.88C 50.7743 14.8 50.7193 14.695 50.7193 14.565ZM 54.9607 12.21L 54.9607 10.635C 54.9607 9.865 55.2507 9.2 55.8307 8.64C 56.4207 8.08 57.1257 7.8 57.9457 7.8C 58.7257 7.8 59.4007 8.065 59.9707 8.595C 60.5407 9.115 60.8257 9.77 60.8257 10.56C 60.8257 10.85 60.7907 11.085 60.7207 11.265C 60.6507 11.435 60.5407 11.56 60.3907 11.64C 60.2507 11.71 60.1157 11.755 59.9857 11.775C 59.8657 11.795 59.7007 11.805 59.4907 11.805L 56.2057 11.805L 56.2057 12.255C 56.2057 12.805 56.4007 13.245 56.7907 13.575C 57.1907 13.905 57.7057 14.07 58.3357 14.07C 58.6657 14.07 58.9507 14.02 59.1907 13.92C 59.4407 13.82 59.6407 13.725 59.7907 13.635C 59.9407 13.535 60.0607 13.485 60.1507 13.485C 60.2907 13.485 60.4107 13.55 60.5107 13.68C 60.6107 13.8 60.6607 13.925 60.6607 14.055C 60.6607 14.285 60.4307 14.52 59.9707 14.76C 59.5207 15 58.9607 15.12 58.2907 15.12C 57.3107 15.12 56.5107 14.855 55.8907 14.325C 55.2707 13.785 54.9607 13.08 54.9607 12.21ZM 56.2057 10.965L 58.9807 10.965C 59.2407 10.965 59.4157 10.935 59.5057 10.875C 59.5957 10.805 59.6407 10.675 59.6407 10.485C 59.6407 10.035 59.4757 9.64 59.1457 9.3C 58.8157 8.96 58.4107 8.79 57.9307 8.79C 57.4607 8.79 57.0557 8.95 56.7157 9.27C 56.3757 9.58 56.2057 9.965 56.2057 10.425L 56.2057 10.965ZM 62.1734 12.735L 62.1734 5.01C 62.1734 4.89 62.2384 4.79 62.3684 4.71C 62.4984 4.62 62.6384 4.575 62.7884 4.575C 62.9484 4.575 63.0934 4.62 63.2234 4.71C 63.3534 4.79 63.4184 4.89 63.4184 5.01L 63.4184 7.89L 65.3084 7.89C 65.4184 7.89 65.5084 7.94 65.5784 8.04C 65.6484 8.14 65.6834 8.255 65.6834 8.385C 65.6834 8.515 65.6484 8.63 65.5784 8.73C 65.5084 8.82 65.4184 8.865 65.3084 8.865L 63.4184 8.865L 63.4184 12.735C 63.4184 13.165 63.5084 13.47 63.6884 13.65C 63.8784 13.82 64.2034 13.905 64.6634 13.905L 65.1284 13.905C 65.2984 13.905 65.4284 13.96 65.5184 14.07C 65.6184 14.17 65.6684 14.295 65.6684 14.445C 65.6684 14.595 65.6184 14.725 65.5184 14.835C 65.4184 14.945 65.2884 15 65.1284 15L 64.6634 15C 63.0034 15 62.1734 14.245 62.1734 12.735ZM 66.4747 12.21L 66.4747 10.71C 66.4747 9.85 66.7247 9.15 67.2247 8.61C 67.7347 8.07 68.4797 7.8 69.4597 7.8C 70.0797 7.8 70.5997 7.91 71.0197 8.13C 71.4497 8.35 71.6647 8.585 71.6647 8.835C 71.6647 8.975 71.6097 9.115 71.4997 9.255C 71.3997 9.385 71.2797 9.45 71.1397 9.45C 71.0997 9.45 70.9247 9.365 70.6147 9.195C 70.3147 9.015 69.9597 8.925 69.5497 8.925C 68.9497 8.925 68.4947 9.08 68.1847 9.39C 67.8747 9.7 67.7197 10.14 67.7197 10.71L 67.7197 12.21C 67.7197 13.4 68.3347 13.995 69.5647 13.995C 69.9847 13.995 70.3497 13.905 70.6597 13.725C 70.9697 13.545 71.1497 13.455 71.1997 13.455C 71.3597 13.455 71.4897 13.52 71.5897 13.65C 71.6997 13.78 71.7547 13.915 71.7547 14.055C 71.7547 14.305 71.5347 14.545 71.0947 14.775C 70.6547 15.005 70.1147 15.12 69.4747 15.12C 68.4847 15.12 67.7347 14.855 67.2247 14.325C 66.7247 13.785 66.4747 13.08 66.4747 12.21ZM 72.9996 14.55L 72.9996 4.035C 72.9996 3.905 73.0546 3.8 73.1646 3.72C 73.2846 3.64 73.4346 3.6 73.6146 3.6C 73.7946 3.6 73.9446 3.64 74.0646 3.72C 74.1846 3.8 74.2446 3.905 74.2446 4.035L 74.2446 8.94C 74.4146 8.62 74.6646 8.35 74.9946 8.13C 75.3346 7.91 75.7346 7.8 76.1946 7.8C 76.9046 7.8 77.5196 8.085 78.0396 8.655C 78.5696 9.215 78.8346 9.89 78.8346 10.68L 78.8346 14.55C 78.8346 14.69 78.7696 14.8 78.6396 14.88C 78.5196 14.96 78.3746 15 78.2046 15C 78.0446 15 77.8996 14.96 77.7696 14.88C 77.6496 14.8 77.5896 14.69 77.5896 14.55L 77.5896 10.68C 77.5896 10.23 77.4196 9.825 77.0796 9.465C 76.7396 9.105 76.3396 8.925 75.8796 8.925C 75.4496 8.925 75.0696 9.09 74.7396 9.42C 74.4096 9.74 74.2446 10.16 74.2446 10.68L 74.2446 14.55C 74.2446 14.66 74.1796 14.765 74.0496 14.865C 73.9296 14.955 73.7846 15 73.6146 15C 73.4446 15 73.2996 14.955 73.1796 14.865C 73.0596 14.775 72.9996 14.67 72.9996 14.55ZM 83.2761 12.21L 83.2761 10.68C 83.2761 9.89 83.5411 9.215 84.0711 8.655C 84.6011 8.085 85.2311 7.8 85.9611 7.8C 86.4111 7.8 86.8061 7.91 87.1461 8.13C 87.4861 8.35 87.7461 8.62 87.9261 8.94L 87.9261 4.035C 87.9261 3.905 87.9861 3.8 88.1061 3.72C 88.2261 3.64 88.3761 3.6 88.5561 3.6C 88.7361 3.6 88.8811 3.64 88.9911 3.72C 89.1111 3.8 89.1711 3.905 89.1711 4.035L 89.1711 14.55C 89.1711 14.67 89.1111 14.775 88.9911 14.865C 88.8711 14.955 88.7261 15 88.5561 15C 88.4061 15 88.2711 14.955 88.1511 14.865C 88.0411 14.775 87.9861 14.67 87.9861 14.55L 87.9861 13.95C 87.8161 14.27 87.5411 14.545 87.1611 14.775C 86.7811 15.005 86.3661 15.12 85.9161 15.12C 85.2161 15.12 84.6011 14.825 84.0711 14.235C 83.5411 13.645 83.2761 12.97 83.2761 12.21ZM 84.5211 12.21C 84.5211 12.67 84.6911 13.085 85.0311 13.455C 85.3711 13.815 85.7661 13.995 86.2161 13.995C 86.6561 13.995 87.0511 13.83 87.4011 13.5C 87.7511 13.16 87.9261 12.865 87.9261 12.615L 87.9261 10.68C 87.9261 10.16 87.7561 9.74 87.4161 9.42C 87.0761 9.09 86.6811 8.925 86.2311 8.925C 85.7711 8.925 85.3711 9.105 85.0311 9.465C 84.6911 9.825 84.5211 10.23 84.5211 10.68L 84.5211 12.21ZM 90.4932 13.125C 90.4932 12.345 90.7932 11.805 91.3932 11.505C 91.9932 11.195 92.8632 11.04 94.0032 11.04L 94.7232 11.04L 94.7232 10.725C 94.7232 10.225 94.5832 9.79 94.3032 9.42C 94.0332 9.05 93.6232 8.865 93.0732 8.865C 92.6532 8.865 92.2832 8.94 91.9632 9.09C 91.6432 9.23 91.4682 9.3 91.4382 9.3C 91.2982 9.3 91.1832 9.235 91.0932 9.105C 91.0132 8.965 90.9732 8.82 90.9732 8.67C 90.9732 8.44 91.1982 8.24 91.6482 8.07C 92.1082 7.89 92.5932 7.8 93.1032 7.8C 94.0832 7.8 94.8032 8.08 95.2632 8.64C 95.7332 9.19 95.9682 9.88 95.9682 10.71L 95.9682 14.55C 95.9682 14.68 95.9082 14.79 95.7882 14.88C 95.6782 14.96 95.5332 15 95.3532 15C 95.1932 15 95.0582 14.96 94.9482 14.88C 94.8382 14.79 94.7832 14.68 94.7832 14.55L 94.7832 13.95C 94.1032 14.73 93.3482 15.12 92.5182 15.12C 91.9182 15.12 91.4282 14.95 91.0482 14.61C 90.6782 14.27 90.4932 13.775 90.4932 13.125ZM 91.7532 12.99C 91.7532 13.36 91.8582 13.64 92.0682 13.83C 92.2782 14.02 92.5582 14.115 92.9082 14.115C 93.3282 14.115 93.7332 13.95 94.1232 13.62C 94.5232 13.28 94.7232 12.935 94.7232 12.585L 94.7232 11.805L 94.1982 11.805C 93.9082 11.805 93.6582 11.815 93.4482 11.835C 93.2382 11.845 93.0182 11.875 92.7882 11.925C 92.5682 11.965 92.3832 12.03 92.2332 12.12C 92.0932 12.2 91.9782 12.315 91.8882 12.465C 91.7982 12.605 91.7532 12.78 91.7532 12.99ZM 97.6519 12.735L 97.6519 5.01C 97.6519 4.89 97.7169 4.79 97.8469 4.71C 97.9769 4.62 98.1169 4.575 98.2669 4.575C 98.4269 4.575 98.5719 4.62 98.7019 4.71C 98.8319 4.79 98.8969 4.89 98.8969 5.01L 98.8969 7.89L 100.787 7.89C 100.897 7.89 100.987 7.94 101.057 8.04C 101.127 8.14 101.162 8.255 101.162 8.385C 101.162 8.515 101.127 8.63 101.057 8.73C 100.987 8.82 100.897 8.865 100.787 8.865L 98.8969 8.865L 98.8969 12.735C 98.8969 13.165 98.9869 13.47 99.1669 13.65C 99.3569 13.82 99.6819 13.905 100.142 13.905L 100.607 13.905C 100.777 13.905 100.907 13.96 100.997 14.07C 101.097 14.17 101.147 14.295 101.147 14.445C 101.147 14.595 101.097 14.725 100.997 14.835C 100.897 14.945 100.767 15 100.607 15L 100.142 15C 98.4819 15 97.6519 14.245 97.6519 12.735ZM 101.86 13.125C 101.86 12.345 102.16 11.805 102.76 11.505C 103.36 11.195 104.23 11.04 105.37 11.04L 106.09 11.04L 106.09 10.725C 106.09 10.225 105.95 9.79 105.67 9.42C 105.4 9.05 104.99 8.865 104.44 8.865C 104.02 8.865 103.65 8.94 103.33 9.09C 103.01 9.23 102.835 9.3 102.805 9.3C 102.665 9.3 102.55 9.235 102.46 9.105C 102.38 8.965 102.34 8.82 102.34 8.67C 102.34 8.44 102.565 8.24 103.015 8.07C 103.475 7.89 103.96 7.8 104.47 7.8C 105.45 7.8 106.17 8.08 106.63 8.64C 107.1 9.19 107.335 9.88 107.335 10.71L 107.335 14.55C 107.335 14.68 107.275 14.79 107.155 14.88C 107.045 14.96 106.9 15 106.72 15C 106.56 15 106.425 14.96 106.315 14.88C 106.205 14.79 106.15 14.68 106.15 14.55L 106.15 13.95C 105.47 14.73 104.715 15.12 103.885 15.12C 103.285 15.12 102.795 14.95 102.415 14.61C 102.045 14.27 101.86 13.775 101.86 13.125ZM 103.12 12.99C 103.12 13.36 103.225 13.64 103.435 13.83C 103.645 14.02 103.925 14.115 104.275 14.115C 104.695 14.115 105.1 13.95 105.49 13.62C 105.89 13.28 106.09 12.935 106.09 12.585L 106.09 11.805L 105.565 11.805C 105.275 11.805 105.025 11.815 104.815 11.835C 104.605 11.845 104.385 11.875 104.155 11.925C 103.935 11.965 103.75 12.03 103.6 12.12C 103.46 12.2 103.345 12.315 103.255 12.465C 103.165 12.605 103.12 12.78 103.12 12.99ZM 112.067 14.565L 112.067 6.405C 112.067 5.625 112.327 4.965 112.847 4.425C 113.377 3.875 114.002 3.6 114.722 3.6L 115.247 3.6C 115.407 3.6 115.532 3.655 115.622 3.765C 115.712 3.875 115.757 4.005 115.757 4.155C 115.757 4.305 115.712 4.435 115.622 4.545C 115.532 4.645 115.407 4.695 115.247 4.695L 114.932 4.695C 114.472 4.695 114.087 4.85 113.777 5.16C 113.477 5.47 113.322 5.85 113.312 6.3L 113.312 7.89L 115.367 7.89C 115.487 7.89 115.582 7.94 115.652 8.04C 115.722 8.14 115.757 8.255 115.757 8.385C 115.757 8.515 115.722 8.63 115.652 8.73C 115.582 8.82 115.487 8.865 115.367 8.865L 113.312 8.865L 113.312 14.565C 113.312 14.685 113.247 14.79 113.117 14.88C 112.997 14.96 112.847 15 112.667 15C 112.497 15 112.352 14.96 112.232 14.88C 112.122 14.8 112.067 14.695 112.067 14.565ZM 116.783 14.55L 116.783 8.325C 116.783 8.195 116.838 8.09 116.948 8.01C 117.068 7.93 117.218 7.89 117.398 7.89C 117.558 7.89 117.693 7.93 117.803 8.01C 117.913 8.09 117.968 8.195 117.968 8.325L 117.968 9.03C 118.148 8.69 118.413 8.4 118.763 8.16C 119.113 7.92 119.503 7.8 119.933 7.8L 120.443 7.8C 120.573 7.8 120.683 7.86 120.773 7.98C 120.873 8.09 120.923 8.22 120.923 8.37C 120.923 8.52 120.873 8.65 120.773 8.76C 120.683 8.87 120.573 8.925 120.443 8.925L 119.933 8.925C 119.423 8.925 118.978 9.13 118.598 9.54C 118.218 9.95 118.028 10.48 118.028 11.13L 118.028 14.55C 118.028 14.66 117.963 14.765 117.833 14.865C 117.713 14.955 117.568 15 117.398 15C 117.228 15 117.083 14.955 116.963 14.865C 116.843 14.775 116.783 14.67 116.783 14.55ZM 121.45 12.21L 121.45 10.68C 121.45 9.91 121.74 9.24 122.32 8.67C 122.91 8.09 123.605 7.8 124.405 7.8C 125.205 7.8 125.9 8.085 126.49 8.655C 127.08 9.225 127.375 9.9 127.375 10.68L 127.375 12.21C 127.375 12.97 127.075 13.645 126.475 14.235C 125.885 14.825 125.195 15.12 124.405 15.12C 123.615 15.12 122.925 14.83 122.335 14.25C 121.745 13.66 121.45 12.98 121.45 12.21ZM 122.695 12.21C 122.695 12.68 122.865 13.095 123.205 13.455C 123.545 13.815 123.945 13.995 124.405 13.995C 124.875 13.995 125.28 13.815 125.62 13.455C 125.96 13.085 126.13 12.67 126.13 12.21L 126.13 10.68C 126.13 10.23 125.96 9.825 125.62 9.465C 125.28 9.105 124.875 8.925 124.405 8.925C 123.935 8.925 123.53 9.105 123.19 9.465C 122.86 9.825 122.695 10.23 122.695 10.68L 122.695 12.21ZM 128.868 14.55L 128.868 8.325C 128.868 8.195 128.923 8.09 129.033 8.01C 129.153 7.93 129.303 7.89 129.483 7.89C 129.643 7.89 129.778 7.93 129.888 8.01C 129.998 8.09 130.053 8.195 130.053 8.325L 130.053 8.94C 130.233 8.61 130.493 8.34 130.833 8.13C 131.183 7.91 131.588 7.8 132.048 7.8C 132.508 7.8 132.918 7.94 133.278 8.22C 133.648 8.49 133.923 8.85 134.103 9.3C 134.353 8.81 134.683 8.44 135.093 8.19C 135.503 7.93 135.933 7.8 136.383 7.8C 137.083 7.8 137.683 8.06 138.183 8.58C 138.693 9.1 138.948 9.8 138.948 10.68L 138.948 14.55C 138.948 14.66 138.883 14.765 138.753 14.865C 138.633 14.955 138.488 15 138.318 15C 138.158 15 138.013 14.955 137.883 14.865C 137.763 14.765 137.703 14.66 137.703 14.55L 137.703 10.68C 137.703 10.14 137.543 9.715 137.223 9.405C 136.913 9.085 136.548 8.925 136.128 8.925C 135.708 8.925 135.333 9.085 135.003 9.405C 134.683 9.725 134.523 10.135 134.523 10.635L 134.523 14.565C 134.523 14.705 134.458 14.815 134.328 14.895C 134.208 14.965 134.063 15 133.893 15C 133.733 15 133.588 14.965 133.458 14.895C 133.338 14.815 133.278 14.705 133.278 14.565L 133.278 10.65C 133.278 10.15 133.123 9.74 132.813 9.42C 132.513 9.09 132.148 8.925 131.718 8.925C 131.288 8.925 130.913 9.085 130.593 9.405C 130.273 9.725 130.113 10.15 130.113 10.68L 130.113 14.55C 130.113 14.66 130.048 14.765 129.918 14.865C 129.798 14.955 129.653 15 129.483 15C 129.313 15 129.168 14.955 129.048 14.865C 128.928 14.775 128.868 14.67 128.868 14.55ZM 143.033 14.475C 143.033 14.455 143.043 14.415 143.063 14.355L 146.123 4.38C 146.213 4.09 146.473 3.945 146.903 3.945C 147.333 3.945 147.593 4.09 147.683 4.38L 150.743 14.355C 150.743 14.375 150.743 14.395 150.743 14.415C 150.753 14.435 150.758 14.45 150.758 14.46C 150.758 14.6 150.673 14.725 150.503 14.835C 150.343 14.945 150.168 15 149.978 15C 149.738 15 149.588 14.905 149.528 14.715L 148.868 12.48L 144.923 12.48L 144.263 14.715C 144.203 14.905 144.048 15 143.798 15C 143.618 15 143.443 14.95 143.273 14.85C 143.113 14.75 143.033 14.625 143.033 14.475ZM 145.208 11.445L 148.568 11.445L 146.903 5.805L 145.208 11.445ZM 152.09 14.55L 152.09 4.47C 152.09 4.35 152.135 4.25 152.225 4.17C 152.325 4.08 152.45 4.035 152.6 4.035L 155.435 4.035C 156.395 4.035 157.165 4.295 157.745 4.815C 158.325 5.335 158.615 6.155 158.615 7.275L 158.615 7.41C 158.615 8.53 158.32 9.355 157.73 9.885C 157.14 10.405 156.355 10.665 155.375 10.665L 153.35 10.665L 153.35 14.55C 153.35 14.69 153.285 14.8 153.155 14.88C 153.035 14.96 152.89 15 152.72 15C 152.55 15 152.4 14.96 152.27 14.88C 152.15 14.8 152.09 14.69 152.09 14.55ZM 153.35 9.615L 155.375 9.615C 156.005 9.615 156.49 9.44 156.83 9.09C 157.18 8.73 157.355 8.195 157.355 7.485L 157.355 7.305C 157.355 6.595 157.18 6.065 156.83 5.715C 156.49 5.355 156.005 5.175 155.375 5.175L 153.35 5.175L 153.35 9.615ZM 160.118 14.55L 160.118 4.47C 160.118 4.33 160.178 4.225 160.298 4.155C 160.428 4.075 160.578 4.035 160.748 4.035C 160.918 4.035 161.063 4.075 161.183 4.155C 161.313 4.225 161.378 4.33 161.378 4.47L 161.378 14.55C 161.378 14.69 161.313 14.8 161.183 14.88C 161.063 14.96 160.918 15 160.748 15C 160.578 15 160.428 14.96 160.298 14.88C 160.178 14.8 160.118 14.69 160.118 14.55Z" transform="translate(217.5 123) scale(1.5)" fill="#EB5757"/>
</g>
</g>
</g>
<defs>

<linearGradient id="paint0_linear" x2="1" gradientUnits="userSpaceOnUse" gradientTransform="matrix(-162.786 51.459 -162.786 -51.459 173.403 -11.5339)">
<stop stop-color="#D4FFEC"/>
<stop offset="0.478729" stop-color="#57F2CC"/>
<stop offset="1" stop-color="#4596FB"/>
</linearGradient>
<linearGradient id="paint1_linear" x2="1" gradientUnits="userSpaceOnUse" gradientTransform="matrix(-162.786 51.459 -162.786 -51.459 173.403 -11.5339)">
<stop stop-color="#D4FFEC"/>
<stop offset="0.478729" stop-color="#57F2CC"/>
<stop offset="1" stop-color="#4596FB"/>
</linearGradient>
<linearGradient id="paint2_linear" x2="1" gradientUnits="userSpaceOnUse" gradientTransform="matrix(-162.786 51.459 -162.786 -51.459 173.403 -11.5339)">
<stop stop-color="#D4FFEC"/>
<stop offset="0.478729" stop-color="#57F2CC"/>
<stop offset="1" stop-color="#4596FB"/>
</linearGradient>
<linearGradient id="paint3_linear" x2="1" gradientUnits="userSpaceOnUse" gradientTransform="matrix(-162.786 51.459 -162.786 -51.459 173.403 -11.5339)">
<stop stop-color="#D4FFEC"/>
<stop offset="0.478729" stop-color="#57F2CC"/>
<stop offset="1" stop-color="#4596FB"/>
</linearGradient>
<linearGradient id="paint4_linear" x2="1" gradientUnits="userSpaceOnUse" gradientTransform="matrix(-162.786 51.459 -162.786 -51.459 173.403 -11.5339)">
<stop stop-color="#D4FFEC"/>
<stop offset="0.478729" stop-color="#57F2CC"/>
<stop offset="1" stop-color="#4596FB"/>
</linearGradient>
<linearGradient id="paint5_linear" x2="1" gradientUnits="userSpaceOnUse" gradientTransform="matrix(-162.786 51.459 -162.786 -51.459 173.403 -11.5339)">
<stop stop-color="#D4FFEC"/>
<stop offset="0.478729" stop-color="#57F2CC"/>
<stop offset="1" stop-color="#4596FB"/>
</linearGradient>
<linearGradient id="paint6_linear" x2="1" gradientUnits="userSpaceOnUse" gradientTransform="matrix(-162.786 51.459 -162.786 -51.459 173.403 -11.5339)">
<stop stop-color="#D4FFEC"/>
<stop offset="0.478729" stop-color="#57F2CC"/>
<stop offset="1" stop-color="#4596FB"/>
</linearGradient>
<linearGradient id="paint7_linear" x2="1" gradientUnits="userSpaceOnUse" gradientTransform="matrix(-162.786 51.459 -162.786 -51.459 173.403 -11.5339)">
<stop stop-color="#D4FFEC"/>
<stop offset="0.478729" stop-color="#57F2CC"/>
<stop offset="1" stop-color="#4596FB"/>
</linearGradient>
<linearGradient id="paint8_linear" x2="1" gradientUnits="userSpaceOnUse" gradientTransform="matrix(-162.786 51.459 -162.786 -51.459 173.403 -11.5339)">
<stop stop-color="#D4FFEC"/>
<stop offset="0.478729" stop-color="#57F2CC"/>
<stop offset="1" stop-color="#4596FB"/>
</linearGradient>

</defs>
</svg>

