<svg width="680" height="225" viewBox="0 0 680 225" version="1.1" xmlns="http://www.w3.org/2000/svg" xmlns:xlink="http://www.w3.org/1999/xlink">
<g id="Canvas" fill="none">
<g id="Group">
<g id="Rectangle 2">
<path d="M 0 0L 453 0L 453 150L 0 150L 0 0Z" transform="scale(1.5)" fill="#F8F8F8"/>
</g>
<g id="NewsBlitz">
<path d="M 29.7687 17.1625C 29.6554 16.9637 29.5988 16.694 29.5988 16.3533C 29.5988 15.9842 29.6271 15.5726 29.6837 15.1183L 29.344 15.1183L 27.3481 26.6167L 19.2796 26.6167L 23.9508 0L 31.5522 0L 35.8838 9.45426C 35.9687 9.653 36.0112 9.93691 36.0112 10.306C 36.0112 10.6467 35.9828 11.0442 35.9262 11.4984L 36.2659 11.4984L 38.3043 0L 46.3729 0L 41.7016 26.6167L 34.1002 26.6167L 29.7687 17.1625ZM 18.0056 26.489L 0 24.5726L 18.3453 24.5726L 18.0056 26.489ZM 19.4494 18.2697L 1.44384 16.3533L 19.7891 16.3533L 19.4494 18.2697ZM 20.1713 14.1814L 2.16576 12.265L 20.5111 12.265L 20.1713 14.1814ZM 20.8933 10.0931L 2.88769 8.17666L 21.233 8.17666L 20.8933 10.0931ZM 21.6152 6.00473L 3.60961 4.08833L 21.9124 4.08833L 21.6152 6.00473ZM 18.7275 22.358L 0.721922 20.4416L 19.0672 20.4416L 18.7275 22.358ZM 22.2946 1.9164L 4.33153 0L 22.6344 0L 22.2946 1.9164Z" transform="translate(210 64.5) scale(1.5)" fill="url(#paint0_linear)"/>
<path d="M 55.9101 16.4917L 59.1906 16.4917C 59.2543 15.9594 59.2225 15.459 59.0951 14.9905C 58.9889 14.5008 58.7978 14.0749 58.5218 13.7129C 58.267 13.3509 57.9379 13.0635 57.5344 12.8506C 57.131 12.6376 56.6851 12.5312 56.1968 12.5312C 55.6659 12.5312 55.1563 12.6483 54.668 12.8825C 54.1796 13.0954 53.7443 13.4361 53.3622 13.9046C 53.0012 14.3517 52.7039 14.9267 52.4704 15.6293C 52.258 16.3107 52.1519 17.1199 52.1519 18.0568C 52.1519 19.9306 52.5872 21.4105 53.4577 22.4965C 54.3283 23.5611 55.4642 24.0935 56.8656 24.0935C 57.6088 24.0935 58.3201 24.0083 58.9995 23.8379C 59.7002 23.6463 60.5071 23.3375 61.4201 22.9117L 62.4393 25.5627C 61.3351 26.095 60.2841 26.4677 59.2862 26.6806C 58.3094 26.8935 57.3646 27 56.4516 27C 55.0926 27 53.9036 26.7551 52.8844 26.2654C 51.8652 25.7756 51.0159 25.1262 50.3365 24.317C 49.657 23.4866 49.1474 22.539 48.8077 21.4744C 48.4679 20.4097 48.2981 19.3024 48.2981 18.1526C 48.2981 16.8537 48.4998 15.6826 48.9032 14.6392C 49.3067 13.5958 49.8693 12.7121 50.5912 11.9882C 51.3344 11.2429 52.1943 10.6786 53.1711 10.2953C 54.169 9.91207 55.2625 9.72043 56.4516 9.72043C 57.5981 9.72043 58.6279 9.9653 59.541 10.455C 60.4752 10.9235 61.2184 11.573 61.7704 12.4034C 62.3437 13.2338 62.6941 14.2133 62.8215 15.3419C 62.9488 16.4491 62.8002 17.6416 62.3756 18.9192L 53.3303 18.9192C 53.5639 18.2378 53.893 17.6629 54.3176 17.1944C 54.7635 16.7259 55.2944 16.4917 55.9101 16.4917Z" transform="translate(210 64.5) scale(1.5)" fill="url(#paint1_linear)"/>
<path d="M 85.8698 26.6167L 81.7293 26.6167L 75.9009 10.1037L 80.0413 10.1037L 83.8633 23.1353L 87.6533 10.1037L 91.6664 10.1037L 85.8698 26.6167ZM 76.8882 22.5923L 75.2002 26.6167L 71.1553 26.6167L 65.3587 10.1037L 69.4673 10.1037L 73.2892 23.1353L 73.5122 22.2409L 76.0601 15.4058C 76.3149 15.789 76.5485 16.2681 76.7608 16.8431C 76.9732 17.3967 77.1218 18.0035 77.2067 18.6636C 77.3129 19.3024 77.3447 19.9625 77.3023 20.6439C 77.2598 21.3253 77.1218 21.9748 76.8882 22.5923Z" transform="translate(210 64.5) scale(1.5)" fill="url(#paint2_linear)"/>
<path d="M 93.0737 25.5946L 93.9974 22.9436C 94.9316 23.3482 95.7916 23.6356 96.5772 23.806C 97.3628 23.955 98.0953 24.0296 98.7748 24.0296C 99.6241 24.0296 100.25 23.8379 100.654 23.4547C 101.057 23.0714 101.259 22.6242 101.259 22.1132C 101.259 21.6021 101.068 21.1763 100.686 20.8356C 100.304 20.4949 99.8258 20.1861 99.2525 19.9093C 98.6792 19.6112 98.0635 19.3237 97.4053 19.0469C 96.747 18.7488 96.1313 18.4081 95.558 18.0248C 94.9847 17.6203 94.507 17.1305 94.1248 16.5556C 93.7426 15.9807 93.5515 15.2567 93.5515 14.3837C 93.5515 13.8726 93.6576 13.3509 93.87 12.8186C 94.0823 12.265 94.4114 11.7752 94.8573 11.3494C 95.3032 10.9022 95.8765 10.5402 96.5772 10.2634C 97.2779 9.9653 98.1272 9.81625 99.1251 9.81625C 99.8046 9.81625 100.516 9.86948 101.259 9.97595C 102.002 10.0824 102.862 10.306 103.839 10.6467L 102.915 13.2338C 102.151 12.9996 101.503 12.8399 100.972 12.7547C 100.442 12.6696 99.9214 12.627 99.4118 12.627C 98.7536 12.627 98.2227 12.776 97.8193 13.0741C 97.4371 13.3509 97.246 13.7555 97.246 14.2879C 97.246 14.7776 97.4371 15.1928 97.8193 15.5335C 98.2015 15.8742 98.6792 16.1936 99.2525 16.4917C 99.8258 16.7685 100.442 17.056 101.1 17.3541C 101.758 17.6522 102.374 18.0142 102.947 18.4401C 103.52 18.8446 103.998 19.345 104.38 19.9412C 104.762 20.5162 104.954 21.2295 104.954 22.0812C 104.954 22.7839 104.794 23.4334 104.476 24.0296C 104.179 24.6258 103.765 25.1475 103.234 25.5946C 102.724 26.0205 102.13 26.3506 101.45 26.5848C 100.792 26.819 100.102 26.9361 99.3799 26.9361C 98.5518 26.9361 97.6282 26.8616 96.609 26.7125C 95.6111 26.5635 94.4326 26.1909 93.0737 25.5946Z" transform="translate(210 64.5) scale(1.5)" fill="url(#paint3_linear)"/>
<path d="M 116.634 24.0615C 116.74 24.0828 116.825 24.0935 116.889 24.0935C 116.974 24.0935 117.069 24.0935 117.175 24.0935C 118.301 24.0935 119.246 23.7315 120.01 23.0075C 120.774 22.2835 121.157 21.3147 121.157 20.1009C 121.157 19.3983 121.008 18.7808 120.711 18.2484C 120.413 17.7161 120.01 17.2689 119.5 16.9069C 118.991 16.545 118.386 16.2681 117.685 16.0765C 116.984 15.8849 116.23 15.789 115.424 15.789L 112.239 15.789L 112.239 26.6167L 108.321 26.6167L 108.321 3.71569C 109.086 3.58793 109.776 3.48147 110.391 3.39629C 111.007 3.28983 111.591 3.20465 112.143 3.14077C 112.695 3.07689 113.237 3.03431 113.767 3.01301C 114.298 2.99172 114.85 2.98107 115.424 2.98107C 116.825 2.98107 118.057 3.14077 119.118 3.46017C 120.18 3.77957 121.061 4.22674 121.762 4.80166C 122.484 5.35528 123.025 6.02603 123.386 6.81388C 123.747 7.58044 123.927 8.43218 123.927 9.36909C 123.927 10.1569 123.694 10.9661 123.227 11.7965C 122.781 12.627 122.165 13.2871 121.379 13.7768L 120.456 14.224L 121.348 14.4476C 122.537 14.9373 123.492 15.6932 124.214 16.7153C 124.936 17.7374 125.297 18.8553 125.297 20.069C 125.297 20.8994 125.116 21.7299 124.756 22.5603C 124.395 23.3695 123.874 24.1041 123.195 24.7642C 122.537 25.403 121.719 25.9353 120.742 26.3612C 119.787 26.7658 118.704 26.9681 117.494 26.9681C 117.197 26.9681 116.899 26.9574 116.602 26.9361C 116.326 26.9361 116.039 26.9148 115.742 26.8722C 115.445 26.8297 115.116 26.7658 114.755 26.6806C 114.394 26.6167 113.98 26.5315 113.513 26.4251C 113.64 26.1483 113.799 25.8715 113.99 25.5946C 114.181 25.2965 114.404 25.0304 114.659 24.7961C 114.914 24.5619 115.201 24.3809 115.519 24.2532C 115.859 24.1041 116.23 24.0402 116.634 24.0615ZM 112.239 13.1061L 115.424 13.1061C 116.061 13.1061 116.645 13.0209 117.175 12.8506C 117.727 12.6589 118.205 12.4034 118.609 12.084C 119.012 11.7433 119.32 11.3494 119.532 10.9022C 119.766 10.4338 119.883 9.93336 119.883 9.40103C 119.883 8.95386 119.798 8.528 119.628 8.12342C 119.458 7.69756 119.182 7.32492 118.8 7.00552C 118.439 6.66483 117.972 6.39866 117.398 6.20702C 116.846 5.99409 116.188 5.88762 115.424 5.88762C 114.85 5.88762 114.32 5.90891 113.831 5.9515C 113.343 5.97279 112.812 6.01538 112.239 6.07926L 112.239 13.1061Z" transform="translate(210 64.5) scale(1.5)" fill="url(#paint4_linear)"/>
<path d="M 133.198 2.40615L 133.198 26.6167L 129.344 26.6167L 129.344 2.40615L 133.198 2.40615Z" transform="translate(210 64.5) scale(1.5)" fill="url(#paint5_linear)"/>
<path d="M 137.449 5.3127C 137.449 4.63131 137.672 4.06703 138.118 3.61987C 138.564 3.15142 139.116 2.91719 139.774 2.91719C 140.453 2.91719 141.016 3.15142 141.462 3.61987C 141.908 4.06703 142.131 4.63131 142.131 5.3127C 142.131 5.97279 141.908 6.53707 141.462 7.00552C 141.016 7.45268 140.453 7.67626 139.774 7.67626C 139.116 7.67626 138.564 7.45268 138.118 7.00552C 137.672 6.53707 137.449 5.97279 137.449 5.3127ZM 141.749 26.6167L 137.831 26.6167L 137.831 10.1037L 141.749 10.1037L 141.749 26.6167Z" transform="translate(210 64.5) scale(1.5)" fill="url(#paint6_linear)"/>
<path d="M 156.765 12.9144L 155.173 12.9144C 154.748 12.9144 154.366 12.8293 154.026 12.6589C 153.708 12.4886 153.432 12.2756 153.198 12.0201C 152.965 11.7433 152.763 11.4452 152.593 11.1258C 152.423 10.7851 152.285 10.4444 152.179 10.1037L 156.765 10.1037L 156.765 12.9144ZM 147.401 20.3884L 147.401 12.9144L 144.662 12.9144L 144.662 10.8064L 147.401 10.1037L 147.401 6.07926L 151.096 4.86554L 151.096 20.5162C 151.096 21.6021 151.319 22.4752 151.765 23.1353C 152.232 23.7953 152.848 24.1254 153.612 24.1254C 153.952 24.1254 154.313 24.0935 154.695 24.0296C 155.098 23.9444 155.576 23.8166 156.128 23.6463L 156.956 26.2015C 156.149 26.4783 155.47 26.6806 154.918 26.8084C 154.387 26.9361 153.856 27 153.326 27C 151.393 27 149.918 26.4357 148.898 25.3072C 147.9 24.1573 147.401 22.5177 147.401 20.3884Z" transform="translate(210 64.5) scale(1.5)" fill="url(#paint7_linear)"/>
<path d="M 160.216 12.8186L 160.216 10.1037L 171.873 10.1037L 171.873 11.7327L 164.675 22.7839C 164.611 22.8904 164.547 22.9968 164.484 23.1033C 164.42 23.1885 164.356 23.2843 164.292 23.3908L 163.783 23.9338L 164.515 23.8379L 172 23.8379L 172 26.6167L 159.292 26.6167L 159.292 24.9878L 166.968 13.2658L 167.446 12.7228L 166.777 12.8186L 160.216 12.8186Z" transform="translate(210 64.5) scale(1.5)" fill="url(#paint8_linear)"/>
</g>
<g id="no image from source.">
<path d="M 0.945 14.61L 0.945 8.265C 0.945 8.155 0.99 8.07 1.08 8.01C 1.17 7.94 1.285 7.905 1.425 7.905C 1.545 7.905 1.65 7.94 1.74 8.01C 1.83 8.08 1.875 8.165 1.875 8.265L 1.875 8.955C 2.045 8.635 2.305 8.365 2.655 8.145C 3.005 7.925 3.415 7.815 3.885 7.815C 4.605 7.815 5.23 8.09 5.76 8.64C 6.29 9.19 6.555 9.85 6.555 10.62L 6.555 14.61C 6.555 14.73 6.505 14.825 6.405 14.895C 6.305 14.965 6.19 15 6.06 15C 5.94 15 5.83 14.965 5.73 14.895C 5.63 14.825 5.58 14.73 5.58 14.61L 5.58 10.62C 5.58 10.13 5.395 9.69 5.025 9.3C 4.655 8.91 4.215 8.715 3.705 8.715C 3.235 8.715 2.82 8.89 2.46 9.24C 2.1 9.59 1.92 10.05 1.92 10.62L 1.92 14.61C 1.92 14.71 1.87 14.8 1.77 14.88C 1.67 14.96 1.555 15 1.425 15C 1.285 15 1.17 14.96 1.08 14.88C 0.99 14.8 0.945 14.71 0.945 14.61ZM 8.10141 12.255L 8.10141 10.62C 8.10141 9.86 8.38141 9.205 8.94141 8.655C 9.50141 8.095 10.1664 7.815 10.9364 7.815C 11.7064 7.815 12.3764 8.09 12.9464 8.64C 13.5164 9.19 13.8014 9.85 13.8014 10.62L 13.8014 12.255C 13.8014 13.005 13.5114 13.67 12.9314 14.25C 12.3614 14.82 11.6964 15.105 10.9364 15.105C 10.1864 15.105 9.52641 14.82 8.95641 14.25C 8.38641 13.67 8.10141 13.005 8.10141 12.255ZM 9.07641 12.255C 9.07641 12.765 9.25641 13.22 9.61641 13.62C 9.98641 14.01 10.4264 14.205 10.9364 14.205C 11.4564 14.205 11.9014 14.01 12.2714 13.62C 12.6414 13.22 12.8264 12.765 12.8264 12.255L 12.8264 10.62C 12.8264 10.13 12.6364 9.69 12.2564 9.3C 11.8864 8.91 11.4464 8.715 10.9364 8.715C 10.4264 8.715 9.98641 8.91 9.61641 9.3C 9.25641 9.69 9.07641 10.13 9.07641 10.62L 9.07641 12.255ZM 18.4059 5.625C 18.2759 5.495 18.2109 5.345 18.2109 5.175C 18.2109 5.005 18.2759 4.86 18.4059 4.74C 18.5359 4.62 18.6959 4.56 18.8859 4.56C 19.0659 4.56 19.2159 4.62 19.3359 4.74C 19.4659 4.86 19.5309 5.005 19.5309 5.175C 19.5309 5.345 19.4659 5.495 19.3359 5.625C 19.2159 5.745 19.0659 5.805 18.8859 5.805C 18.6959 5.805 18.5359 5.745 18.4059 5.625ZM 18.4059 14.61L 18.4059 8.265C 18.4059 8.165 18.4509 8.08 18.5409 8.01C 18.6309 7.94 18.7459 7.905 18.8859 7.905C 19.0259 7.905 19.1409 7.94 19.2309 8.01C 19.3309 8.08 19.3809 8.165 19.3809 8.265L 19.3809 14.61C 19.3809 14.71 19.3309 14.8 19.2309 14.88C 19.1309 14.96 19.0159 15 18.8859 15C 18.7559 15 18.6409 14.96 18.5409 14.88C 18.4509 14.8 18.4059 14.71 18.4059 14.61ZM 21.277 14.61L 21.277 8.265C 21.277 8.165 21.322 8.08 21.412 8.01C 21.502 7.94 21.617 7.905 21.757 7.905C 21.887 7.905 21.997 7.94 22.087 8.01C 22.177 8.08 22.222 8.165 22.222 8.265L 22.222 8.955C 22.402 8.625 22.662 8.355 23.002 8.145C 23.352 7.925 23.757 7.815 24.217 7.815C 24.697 7.815 25.127 7.955 25.507 8.235C 25.887 8.505 26.167 8.865 26.347 9.315C 26.597 8.825 26.927 8.455 27.337 8.205C 27.747 7.945 28.177 7.815 28.627 7.815C 29.307 7.815 29.897 8.07 30.397 8.58C 30.897 9.09 31.147 9.77 31.147 10.62L 31.147 14.61C 31.147 14.71 31.097 14.8 30.997 14.88C 30.907 14.96 30.792 15 30.652 15C 30.522 15 30.407 14.96 30.307 14.88C 30.217 14.8 30.172 14.71 30.172 14.61L 30.172 10.62C 30.172 10.03 29.997 9.565 29.647 9.225C 29.307 8.885 28.912 8.715 28.462 8.715C 28.002 8.715 27.592 8.89 27.232 9.24C 26.882 9.58 26.707 10.02 26.707 10.56L 26.707 14.625C 26.707 14.875 26.542 15 26.212 15C 25.892 15 25.732 14.875 25.732 14.625L 25.732 10.575C 25.732 10.045 25.562 9.605 25.222 9.255C 24.892 8.895 24.492 8.715 24.022 8.715C 23.552 8.715 23.137 8.89 22.777 9.24C 22.427 9.58 22.252 10.04 22.252 10.62L 22.252 14.61C 22.252 14.71 22.202 14.8 22.102 14.88C 22.002 14.96 21.887 15 21.757 15C 21.627 15 21.512 14.96 21.412 14.88C 21.322 14.8 21.277 14.71 21.277 14.61ZM 32.4861 13.125C 32.4861 12.355 32.7811 11.82 33.3711 11.52C 33.9711 11.22 34.8411 11.07 35.9811 11.07L 36.7461 11.07L 36.7461 10.71C 36.7461 10.16 36.6011 9.685 36.3111 9.285C 36.0211 8.875 35.5761 8.67 34.9761 8.67C 34.5761 8.67 34.2111 8.745 33.8811 8.895C 33.5611 9.035 33.3911 9.105 33.3711 9.105C 33.2511 9.105 33.1561 9.05 33.0861 8.94C 33.0161 8.83 32.9811 8.71 32.9811 8.58C 32.9811 8.39 33.1961 8.215 33.6261 8.055C 34.0561 7.895 34.5161 7.815 35.0061 7.815C 35.9461 7.815 36.6311 8.09 37.0611 8.64C 37.5011 9.18 37.7211 9.87 37.7211 10.71L 37.7211 14.61C 37.7211 14.72 37.6761 14.815 37.5861 14.895C 37.4961 14.965 37.3811 15 37.2411 15C 37.1111 15 37.0011 14.965 36.9111 14.895C 36.8311 14.815 36.7911 14.72 36.7911 14.61L 36.7911 13.95C 36.1211 14.72 35.3661 15.105 34.5261 15.105C 33.9261 15.105 33.4361 14.94 33.0561 14.61C 32.6761 14.27 32.4861 13.775 32.4861 13.125ZM 33.4611 13.035C 33.4611 13.455 33.5811 13.77 33.8211 13.98C 34.0611 14.18 34.3761 14.28 34.7661 14.28C 35.2361 14.28 35.6811 14.105 36.1011 13.755C 36.5311 13.405 36.7461 13.055 36.7461 12.705L 36.7461 11.745L 36.1161 11.745C 35.7161 11.745 35.3761 11.76 35.0961 11.79C 34.8261 11.82 34.5561 11.875 34.2861 11.955C 34.0161 12.035 33.8111 12.165 33.6711 12.345C 33.5311 12.525 33.4611 12.755 33.4611 13.035ZM 38.9883 16.485C 38.9883 15.735 39.4133 15.19 40.2633 14.85C 39.7133 14.66 39.4383 14.315 39.4383 13.815C 39.4383 13.365 39.6883 13.005 40.1883 12.735C 39.6383 12.275 39.3633 11.645 39.3633 10.845L 39.3633 10.275C 39.3633 9.545 39.5983 8.955 40.0683 8.505C 40.5483 8.045 41.1733 7.815 41.9433 7.815C 42.6433 7.815 43.2283 8.025 43.6983 8.445C 43.8483 8.155 44.0183 7.925 44.2083 7.755C 44.3983 7.585 44.5833 7.5 44.7633 7.5C 44.9033 7.5 45.0133 7.54 45.0933 7.62C 45.1733 7.7 45.2133 7.79 45.2133 7.89C 45.2133 8.07 45.1283 8.18 44.9583 8.22C 44.6083 8.29 44.3283 8.505 44.1183 8.865C 44.3983 9.235 44.5383 9.705 44.5383 10.275L 44.5383 10.845C 44.5383 11.565 44.2933 12.16 43.8033 12.63C 43.3133 13.1 42.6883 13.335 41.9283 13.335C 41.5183 13.335 41.1333 13.25 40.7733 13.08C 40.4633 13.25 40.3083 13.445 40.3083 13.665C 40.3083 13.875 40.4233 14.035 40.6533 14.145C 40.8833 14.255 41.1683 14.325 41.5083 14.355C 41.8583 14.385 42.2333 14.435 42.6333 14.505C 43.0433 14.565 43.4183 14.645 43.7583 14.745C 44.1083 14.845 44.3983 15.03 44.6283 15.3C 44.8583 15.57 44.9733 15.92 44.9733 16.35C 44.9733 17.03 44.7033 17.555 44.1633 17.925C 43.6233 18.295 42.9133 18.48 42.0333 18.48C 41.1333 18.48 40.3983 18.3 39.8283 17.94C 39.2683 17.58 38.9883 17.095 38.9883 16.485ZM 39.9333 16.395C 39.9333 16.805 40.1183 17.135 40.4883 17.385C 40.8683 17.635 41.3783 17.76 42.0183 17.76C 42.6483 17.76 43.1383 17.635 43.4883 17.385C 43.8483 17.135 44.0283 16.8 44.0283 16.38C 44.0283 16.18 43.9783 16.005 43.8783 15.855C 43.7783 15.705 43.6583 15.59 43.5183 15.51C 43.3883 15.43 43.2133 15.36 42.9933 15.3C 42.7733 15.24 42.5783 15.2 42.4083 15.18C 42.2483 15.16 42.0433 15.14 41.7933 15.12L 41.2683 15.06C 40.3783 15.34 39.9333 15.785 39.9333 16.395ZM 40.3083 10.83C 40.3083 11.35 40.4533 11.775 40.7433 12.105C 41.0433 12.435 41.4483 12.6 41.9583 12.6C 42.4483 12.6 42.8383 12.435 43.1283 12.105C 43.4283 11.775 43.5783 11.355 43.5783 10.845L 43.5783 10.275C 43.5783 9.775 43.4283 9.365 43.1283 9.045C 42.8383 8.715 42.4433 8.55 41.9433 8.55C 41.4433 8.55 41.0433 8.715 40.7433 9.045C 40.4533 9.365 40.3083 9.775 40.3083 10.275L 40.3083 10.83ZM 46.0705 12.255L 46.0705 10.575C 46.0705 9.825 46.3505 9.18 46.9105 8.64C 47.4705 8.09 48.1455 7.815 48.9355 7.815C 49.6955 7.815 50.3505 8.075 50.9005 8.595C 51.4605 9.115 51.7405 9.765 51.7405 10.545C 51.7405 10.825 51.7055 11.05 51.6355 11.22C 51.5755 11.39 51.4705 11.51 51.3205 11.58C 51.1805 11.65 51.0505 11.695 50.9305 11.715C 50.8105 11.735 50.6455 11.745 50.4355 11.745L 47.0455 11.745L 47.0455 12.3C 47.0455 12.89 47.2555 13.365 47.6755 13.725C 48.1055 14.075 48.6555 14.25 49.3255 14.25C 49.6655 14.25 49.9605 14.2 50.2105 14.1C 50.4705 14 50.6655 13.9 50.7955 13.8C 50.9355 13.7 51.0455 13.65 51.1255 13.65C 51.2355 13.65 51.3305 13.705 51.4105 13.815C 51.5005 13.915 51.5455 14.015 51.5455 14.115C 51.5455 14.325 51.3305 14.545 50.9005 14.775C 50.4705 14.995 49.9355 15.105 49.2955 15.105C 48.3455 15.105 47.5705 14.845 46.9705 14.325C 46.3705 13.795 46.0705 13.105 46.0705 12.255ZM 47.0455 11.025L 50.0455 11.025C 50.3455 11.025 50.5455 10.995 50.6455 10.935C 50.7455 10.865 50.7955 10.725 50.7955 10.515C 50.7955 10.015 50.6155 9.575 50.2555 9.195C 49.9055 8.815 49.4605 8.625 48.9205 8.625C 48.4005 8.625 47.9555 8.805 47.5855 9.165C 47.2255 9.525 47.0455 9.955 47.0455 10.455L 47.0455 11.025ZM 56.2136 14.625L 56.2136 6.315C 56.2136 5.565 56.4786 4.92 57.0086 4.38C 57.5386 3.83 58.1636 3.555 58.8836 3.555L 59.2586 3.555C 59.3786 3.555 59.4786 3.6 59.5586 3.69C 59.6386 3.78 59.6786 3.885 59.6786 4.005C 59.6786 4.125 59.6386 4.23 59.5586 4.32C 59.4786 4.4 59.3786 4.44 59.2586 4.44L 59.0036 4.44C 58.4936 4.44 58.0636 4.62 57.7136 4.98C 57.3736 5.33 57.1986 5.75 57.1886 6.24L 57.1886 7.905L 59.3336 7.905C 59.4336 7.905 59.5136 7.945 59.5736 8.025C 59.6436 8.105 59.6786 8.195 59.6786 8.295C 59.6786 8.415 59.6436 8.515 59.5736 8.595C 59.5136 8.675 59.4336 8.715 59.3336 8.715L 57.1886 8.715L 57.1886 14.625C 57.1886 14.735 57.1386 14.825 57.0386 14.895C 56.9386 14.965 56.8186 15 56.6786 15C 56.5486 15 56.4386 14.965 56.3486 14.895C 56.2586 14.825 56.2136 14.735 56.2136 14.625ZM 60.7839 14.61L 60.7839 8.265C 60.7839 8.165 60.8289 8.08 60.9189 8.01C 61.0089 7.94 61.1239 7.905 61.2639 7.905C 61.3939 7.905 61.5039 7.94 61.5939 8.01C 61.6839 8.08 61.7289 8.165 61.7289 8.265L 61.7289 9C 61.9089 8.67 62.1739 8.39 62.5239 8.16C 62.8739 7.93 63.2789 7.815 63.7389 7.815L 64.2639 7.815C 64.3639 7.815 64.4539 7.86 64.5339 7.95C 64.6139 8.04 64.6539 8.145 64.6539 8.265C 64.6539 8.385 64.6139 8.49 64.5339 8.58C 64.4539 8.67 64.3639 8.715 64.2639 8.715L 63.7389 8.715C 63.2189 8.715 62.7589 8.92 62.3589 9.33C 61.9589 9.73 61.7589 10.255 61.7589 10.905L 61.7589 14.61C 61.7589 14.71 61.7089 14.8 61.6089 14.88C 61.5189 14.96 61.4039 15 61.2639 15C 61.1339 15 61.0189 14.96 60.9189 14.88C 60.8289 14.8 60.7839 14.71 60.7839 14.61ZM 65.201 12.255L 65.201 10.62C 65.201 9.86 65.481 9.205 66.041 8.655C 66.601 8.095 67.266 7.815 68.036 7.815C 68.806 7.815 69.476 8.09 70.046 8.64C 70.616 9.19 70.901 9.85 70.901 10.62L 70.901 12.255C 70.901 13.005 70.611 13.67 70.031 14.25C 69.461 14.82 68.796 15.105 68.036 15.105C 67.286 15.105 66.626 14.82 66.056 14.25C 65.486 13.67 65.201 13.005 65.201 12.255ZM 66.176 12.255C 66.176 12.765 66.356 13.22 66.716 13.62C 67.086 14.01 67.526 14.205 68.036 14.205C 68.556 14.205 69.001 14.01 69.371 13.62C 69.741 13.22 69.926 12.765 69.926 12.255L 69.926 10.62C 69.926 10.13 69.736 9.69 69.356 9.3C 68.986 8.91 68.546 8.715 68.036 8.715C 67.526 8.715 67.086 8.91 66.716 9.3C 66.356 9.69 66.176 10.13 66.176 10.62L 66.176 12.255ZM 72.5026 14.61L 72.5026 8.265C 72.5026 8.165 72.5476 8.08 72.6376 8.01C 72.7276 7.94 72.8426 7.905 72.9826 7.905C 73.1126 7.905 73.2226 7.94 73.3126 8.01C 73.4026 8.08 73.4476 8.165 73.4476 8.265L 73.4476 8.955C 73.6276 8.625 73.8876 8.355 74.2276 8.145C 74.5776 7.925 74.9826 7.815 75.4426 7.815C 75.9226 7.815 76.3526 7.955 76.7326 8.235C 77.1126 8.505 77.3926 8.865 77.5726 9.315C 77.8226 8.825 78.1526 8.455 78.5626 8.205C 78.9726 7.945 79.4026 7.815 79.8526 7.815C 80.5326 7.815 81.1226 8.07 81.6226 8.58C 82.1226 9.09 82.3726 9.77 82.3726 10.62L 82.3726 14.61C 82.3726 14.71 82.3226 14.8 82.2226 14.88C 82.1326 14.96 82.0176 15 81.8776 15C 81.7476 15 81.6326 14.96 81.5326 14.88C 81.4426 14.8 81.3976 14.71 81.3976 14.61L 81.3976 10.62C 81.3976 10.03 81.2226 9.565 80.8726 9.225C 80.5326 8.885 80.1376 8.715 79.6876 8.715C 79.2276 8.715 78.8176 8.89 78.4576 9.24C 78.1076 9.58 77.9326 10.02 77.9326 10.56L 77.9326 14.625C 77.9326 14.875 77.7676 15 77.4376 15C 77.1176 15 76.9576 14.875 76.9576 14.625L 76.9576 10.575C 76.9576 10.045 76.7876 9.605 76.4476 9.255C 76.1176 8.895 75.7176 8.715 75.2476 8.715C 74.7776 8.715 74.3626 8.89 74.0026 9.24C 73.6526 9.58 73.4776 10.04 73.4776 10.62L 73.4776 14.61C 73.4776 14.71 73.4276 14.8 73.3276 14.88C 73.2276 14.96 73.1126 15 72.9826 15C 72.8526 15 72.7376 14.96 72.6376 14.88C 72.5476 14.8 72.5026 14.71 72.5026 14.61ZM 86.7596 14.025C 86.7596 13.925 86.7946 13.825 86.8646 13.725C 86.9346 13.625 87.0146 13.575 87.1046 13.575C 87.1746 13.575 87.2846 13.635 87.4346 13.755C 87.5846 13.865 87.7996 13.98 88.0796 14.1C 88.3596 14.22 88.6946 14.28 89.0846 14.28C 89.6146 14.28 90.0046 14.18 90.2546 13.98C 90.5046 13.78 90.6296 13.525 90.6296 13.215C 90.6296 12.855 90.4996 12.57 90.2396 12.36C 89.9896 12.14 89.6846 11.98 89.3246 11.88C 88.9646 11.78 88.5996 11.67 88.2296 11.55C 87.8696 11.43 87.5596 11.235 87.2996 10.965C 87.0496 10.685 86.9246 10.315 86.9246 9.855C 86.9246 9.305 87.1196 8.83 87.5096 8.43C 87.9096 8.02 88.5046 7.815 89.2946 7.815C 89.7846 7.815 90.2396 7.895 90.6596 8.055C 91.0896 8.205 91.3046 8.37 91.3046 8.55C 91.3046 8.65 91.2646 8.76 91.1846 8.88C 91.1046 9 91.0096 9.06 90.8996 9.06C 90.8696 9.06 90.6846 8.99 90.3446 8.85C 90.0046 8.71 89.6596 8.64 89.3096 8.64C 88.8096 8.64 88.4346 8.76 88.1846 9C 87.9346 9.24 87.8096 9.51 87.8096 9.81C 87.8096 10.12 87.9346 10.365 88.1846 10.545C 88.4446 10.725 88.7546 10.865 89.1146 10.965C 89.4846 11.055 89.8496 11.165 90.2096 11.295C 90.5796 11.415 90.8896 11.635 91.1396 11.955C 91.3996 12.265 91.5296 12.67 91.5296 13.17C 91.5296 13.77 91.3146 14.245 90.8846 14.595C 90.4646 14.935 89.8746 15.105 89.1146 15.105C 88.4546 15.105 87.8946 14.99 87.4346 14.76C 86.9846 14.52 86.7596 14.275 86.7596 14.025ZM 92.6961 12.255L 92.6961 10.62C 92.6961 9.86 92.9761 9.205 93.5361 8.655C 94.0961 8.095 94.7611 7.815 95.5311 7.815C 96.3011 7.815 96.9711 8.09 97.5411 8.64C 98.1111 9.19 98.3961 9.85 98.3961 10.62L 98.3961 12.255C 98.3961 13.005 98.1061 13.67 97.5261 14.25C 96.9561 14.82 96.2911 15.105 95.5311 15.105C 94.7811 15.105 94.1211 14.82 93.5511 14.25C 92.9811 13.67 92.6961 13.005 92.6961 12.255ZM 93.6711 12.255C 93.6711 12.765 93.8511 13.22 94.2111 13.62C 94.5811 14.01 95.0211 14.205 95.5311 14.205C 96.0511 14.205 96.4961 14.01 96.8661 13.62C 97.2361 13.22 97.4211 12.765 97.4211 12.255L 97.4211 10.62C 97.4211 10.13 97.2311 9.69 96.8511 9.3C 96.4811 8.91 96.0411 8.715 95.5311 8.715C 95.0211 8.715 94.5811 8.91 94.2111 9.3C 93.8511 9.69 93.6711 10.13 93.6711 10.62L 93.6711 12.255ZM 99.9227 12.285L 99.9227 8.28C 99.9227 8.19 99.9677 8.105 100.058 8.025C 100.158 7.945 100.278 7.905 100.418 7.905C 100.538 7.905 100.648 7.945 100.748 8.025C 100.848 8.105 100.898 8.19 100.898 8.28L 100.898 12.285C 100.898 12.785 101.083 13.23 101.453 13.62C 101.823 14.01 102.263 14.205 102.773 14.205C 103.283 14.205 103.723 14.01 104.093 13.62C 104.463 13.23 104.648 12.785 104.648 12.285L 104.648 8.265C 104.648 8.165 104.698 8.08 104.798 8.01C 104.898 7.94 105.013 7.905 105.143 7.905C 105.273 7.905 105.383 7.94 105.473 8.01C 105.573 8.08 105.623 8.165 105.623 8.265L 105.623 12.285C 105.623 13.035 105.338 13.695 104.768 14.265C 104.208 14.825 103.543 15.105 102.773 15.105C 101.993 15.105 101.323 14.825 100.763 14.265C 100.203 13.695 99.9227 13.035 99.9227 12.285ZM 107.439 14.61L 107.439 8.265C 107.439 8.165 107.484 8.08 107.574 8.01C 107.664 7.94 107.779 7.905 107.919 7.905C 108.049 7.905 108.159 7.94 108.249 8.01C 108.339 8.08 108.384 8.165 108.384 8.265L 108.384 9C 108.564 8.67 108.829 8.39 109.179 8.16C 109.529 7.93 109.934 7.815 110.394 7.815L 110.919 7.815C 111.019 7.815 111.109 7.86 111.189 7.95C 111.269 8.04 111.309 8.145 111.309 8.265C 111.309 8.385 111.269 8.49 111.189 8.58C 111.109 8.67 111.019 8.715 110.919 8.715L 110.394 8.715C 109.874 8.715 109.414 8.92 109.014 9.33C 108.614 9.73 108.414 10.255 108.414 10.905L 108.414 14.61C 108.414 14.71 108.364 14.8 108.264 14.88C 108.174 14.96 108.059 15 107.919 15C 107.789 15 107.674 14.96 107.574 14.88C 107.484 14.8 107.439 14.71 107.439 14.61ZM 111.886 12.255L 111.886 10.65C 111.886 9.81 112.131 9.13 112.621 8.61C 113.111 8.08 113.831 7.815 114.781 7.815C 115.381 7.815 115.881 7.925 116.281 8.145C 116.691 8.355 116.896 8.57 116.896 8.79C 116.896 8.9 116.851 9.01 116.761 9.12C 116.671 9.22 116.571 9.27 116.461 9.27C 116.401 9.27 116.306 9.225 116.176 9.135C 116.056 9.045 115.881 8.955 115.651 8.865C 115.421 8.765 115.146 8.715 114.826 8.715C 114.186 8.715 113.696 8.885 113.356 9.225C 113.026 9.565 112.861 10.04 112.861 10.65L 112.861 12.255C 112.861 12.875 113.026 13.355 113.356 13.695C 113.696 14.035 114.191 14.205 114.841 14.205C 115.181 14.205 115.466 14.16 115.696 14.07C 115.936 13.97 116.116 13.875 116.236 13.785C 116.366 13.685 116.466 13.635 116.536 13.635C 116.666 13.635 116.771 13.685 116.851 13.785C 116.941 13.885 116.986 13.995 116.986 14.115C 116.986 14.345 116.776 14.57 116.356 14.79C 115.936 15 115.416 15.105 114.796 15.105C 113.836 15.105 113.111 14.845 112.621 14.325C 112.131 13.805 111.886 13.115 111.886 12.255ZM 117.965 12.255L 117.965 10.575C 117.965 9.825 118.245 9.18 118.805 8.64C 119.365 8.09 120.04 7.815 120.83 7.815C 121.59 7.815 122.245 8.075 122.795 8.595C 123.355 9.115 123.635 9.765 123.635 10.545C 123.635 10.825 123.6 11.05 123.53 11.22C 123.47 11.39 123.365 11.51 123.215 11.58C 123.075 11.65 122.945 11.695 122.825 11.715C 122.705 11.735 122.54 11.745 122.33 11.745L 118.94 11.745L 118.94 12.3C 118.94 12.89 119.15 13.365 119.57 13.725C 120 14.075 120.55 14.25 121.22 14.25C 121.56 14.25 121.855 14.2 122.105 14.1C 122.365 14 122.56 13.9 122.69 13.8C 122.83 13.7 122.94 13.65 123.02 13.65C 123.13 13.65 123.225 13.705 123.305 13.815C 123.395 13.915 123.44 14.015 123.44 14.115C 123.44 14.325 123.225 14.545 122.795 14.775C 122.365 14.995 121.83 15.105 121.19 15.105C 120.24 15.105 119.465 14.845 118.865 14.325C 118.265 13.795 117.965 13.105 117.965 12.255ZM 118.94 11.025L 121.94 11.025C 122.24 11.025 122.44 10.995 122.54 10.935C 122.64 10.865 122.69 10.725 122.69 10.515C 122.69 10.015 122.51 9.575 122.15 9.195C 121.8 8.815 121.355 8.625 120.815 8.625C 120.295 8.625 119.85 8.805 119.48 9.165C 119.12 9.525 118.94 9.955 118.94 10.455L 118.94 11.025ZM 124.76 14.4C 124.76 14.2 124.825 14.035 124.955 13.905C 125.085 13.765 125.25 13.695 125.45 13.695C 125.63 13.695 125.785 13.765 125.915 13.905C 126.055 14.045 126.125 14.21 126.125 14.4C 126.125 14.58 126.055 14.74 125.915 14.88C 125.785 15.02 125.63 15.09 125.45 15.09C 125.25 15.09 125.085 15.025 124.955 14.895C 124.825 14.755 124.76 14.59 124.76 14.4Z" transform="translate(244.5 123) scale(1.5)" fill="black"/>
</g>
</g>
</g>
<defs>

<linearGradient id="paint0_linear" x2="1" gradientUnits="userSpaceOnUse" gradientTransform="matrix(-162.786 51.459 -162.786 -51.459 173.403 -11.5339)">
<stop stop-color="#D4FFEC"/>
<stop offset="0.478729" stop-color="#57F2CC"/>
<stop offset="1" stop-color="#4596FB"/>
</linearGradient>
<linearGradient id="paint1_linear" x2="1" gradientUnits="userSpaceOnUse" gradientTransform="matrix(-162.786 51.459 -162.786 -51.459 173.403 -11.5339)">
<stop stop-color="#D4FFEC"/>
<stop offset="0.478729" stop-color="#57F2CC"/>
<stop offset="1" stop-color="#4596FB"/>
</linearGradient>
<linearGradient id="paint2_linear" x2="1" gradientUnits="userSpaceOnUse" gradientTransform="matrix(-162.786 51.459 -162.786 -51.459 173.403 -11.5339)">
<stop stop-color="#D4FFEC"/>
<stop offset="0.478729" stop-color="#57F2CC"/>
<stop offset="1" stop-color="#4596FB"/>
</linearGradient>
<linearGradient id="paint3_linear" x2="1" gradientUnits="userSpaceOnUse" gradientTransform="matrix(-162.786 51.459 -162.786 -51.459 173.403 -11.5339)">
<stop stop-color="#D4FFEC"/>
<stop offset="0.478729" stop-color="#57F2CC"/>
<stop offset="1" stop-color="#4596FB"/>
</linearGradient>
<linearGradient id="paint4_linear" x2="1" gradientUnits="userSpaceOnUse" gradientTransform="matrix(-162.786 51.459 -162.786 -51.459 173.403 -11.5339)">
<stop stop-color="#D4FFEC"/>
<stop offset="0.478729" stop-color="#57F2CC"/>
<stop offset="1" stop-color="#4596FB"/>
</linearGradient>
<linearGradient id="paint5_linear" x2="1" gradientUnits="userSpaceOnUse" gradientTransform="matrix(-162.786 51.459 -162.786 -51.459 173.403 -11.5339)">
<stop stop-color="#D4FFEC"/>
<stop offset="0.478729" stop-color="#57F2CC"/>
<stop offset="1" stop-color="#4596FB"/>
</linearGradient>
<linearGradient id="paint6_linear" x2="1" gradientUnits="userSpaceOnUse" gradientTransform="matrix(-162.786 51.459 -162.786 -51.459 173.403 -11.5339)">
<stop stop-color="#D4FFEC"/>
<stop offset="0.478729" stop-color="#57F2CC"/>
<stop offset="1" stop-color="#4596FB"/>
</linearGradient>
<linearGradient id="paint7_linear" x2="1" gradientUnits="userSpaceOnUse" gradientTransform="matrix(-162.786 51.459 -162.786 -51.459 173.403 -11.5339)">
<stop stop-color="#D4FFEC"/>
<stop offset="0.478729" stop-color="#57F2CC"/>
<stop offset="1" stop-color="#4596FB"/>
</linearGradient>
<linearGradient id="paint8_linear" x2="1" gradientUnits="userSpaceOnUse" gradientTransform="matrix(-162.786 51.459 -162.786 -51.459 173.403 -11.5339)">
<stop stop-color="#D4FFEC"/>
<stop offset="0.478729" stop-color="#57F2CC"/>
<stop offset="1" stop-color="#4596FB"/>
</linearGradient>

</defs>
</svg>

