<svg width="293" height="47" viewBox="0 0 293 47" version="1.1" xmlns="http://www.w3.org/2000/svg" xmlns:xlink="http://www.w3.org/1999/xlink">
<title>NewsBlitz</title>
<desc>Created using Figma</desc>
<g id="Canvas" transform="matrix(1.5 0 0 1.5 247.5 -2089.5)">
<g id="NewsBlitz">
<use xlink:href="#path0_fill" transform="translate(-165 1393)" fill="url(#paint0_linear)"/>
<use xlink:href="#path1_fill" transform="translate(-165 1393)" fill="url(#paint1_linear)"/>
<use xlink:href="#path2_fill" transform="translate(-165 1393)" fill="url(#paint2_linear)"/>
<use xlink:href="#path3_fill" transform="translate(-165 1393)" fill="url(#paint3_linear)"/>
<use xlink:href="#path4_fill" transform="translate(-165 1393)" fill="url(#paint4_linear)"/>
<use xlink:href="#path5_fill" transform="translate(-165 1393)" fill="url(#paint5_linear)"/>
<use xlink:href="#path6_fill" transform="translate(-165 1393)" fill="url(#paint6_linear)"/>
<use xlink:href="#path7_fill" transform="translate(-165 1393)" fill="url(#paint7_linear)"/>
<use xlink:href="#path8_fill" transform="translate(-165 1393)" fill="url(#paint8_linear)"/>
</g>
</g>
<defs>
<linearGradient id="paint0_linear" x1="0" y1="0" x2="1" y2="0" gradientUnits="userSpaceOnUse" gradientTransform="matrix(-184 58 -184 -58 196 -13)">
<stop offset="0" stop-color="#D4FFEC"/>
<stop offset="0.478729" stop-color="#57F2CC"/>
<stop offset="1" stop-color="#4596FB"/>
</linearGradient>
<linearGradient id="paint1_linear" x1="0" y1="0" x2="1" y2="0" gradientUnits="userSpaceOnUse" gradientTransform="matrix(-184 58 -184 -58 196 -13)">
<stop offset="0" stop-color="#D4FFEC"/>
<stop offset="0.478729" stop-color="#57F2CC"/>
<stop offset="1" stop-color="#4596FB"/>
</linearGradient>
<linearGradient id="paint2_linear" x1="0" y1="0" x2="1" y2="0" gradientUnits="userSpaceOnUse" gradientTransform="matrix(-184 58 -184 -58 196 -13)">
<stop offset="0" stop-color="#D4FFEC"/>
<stop offset="0.478729" stop-color="#57F2CC"/>
<stop offset="1" stop-color="#4596FB"/>
</linearGradient>
<linearGradient id="paint3_linear" x1="0" y1="0" x2="1" y2="0" gradientUnits="userSpaceOnUse" gradientTransform="matrix(-184 58 -184 -58 196 -13)">
<stop offset="0" stop-color="#D4FFEC"/>
<stop offset="0.478729" stop-color="#57F2CC"/>
<stop offset="1" stop-color="#4596FB"/>
</linearGradient>
<linearGradient id="paint4_linear" x1="0" y1="0" x2="1" y2="0" gradientUnits="userSpaceOnUse" gradientTransform="matrix(-184 58 -184 -58 196 -13)">
<stop offset="0" stop-color="#D4FFEC"/>
<stop offset="0.478729" stop-color="#57F2CC"/>
<stop offset="1" stop-color="#4596FB"/>
</linearGradient>
<linearGradient id="paint5_linear" x1="0" y1="0" x2="1" y2="0" gradientUnits="userSpaceOnUse" gradientTransform="matrix(-184 58 -184 -58 196 -13)">
<stop offset="0" stop-color="#D4FFEC"/>
<stop offset="0.478729" stop-color="#57F2CC"/>
<stop offset="1" stop-color="#4596FB"/>
</linearGradient>
<linearGradient id="paint6_linear" x1="0" y1="0" x2="1" y2="0" gradientUnits="userSpaceOnUse" gradientTransform="matrix(-184 58 -184 -58 196 -13)">
<stop offset="0" stop-color="#D4FFEC"/>
<stop offset="0.478729" stop-color="#57F2CC"/>
<stop offset="1" stop-color="#4596FB"/>
</linearGradient>
<linearGradient id="paint7_linear" x1="0" y1="0" x2="1" y2="0" gradientUnits="userSpaceOnUse" gradientTransform="matrix(-184 58 -184 -58 196 -13)">
<stop offset="0" stop-color="#D4FFEC"/>
<stop offset="0.478729" stop-color="#57F2CC"/>
<stop offset="1" stop-color="#4596FB"/>
</linearGradient>
<linearGradient id="paint8_linear" x1="0" y1="0" x2="1" y2="0" gradientUnits="userSpaceOnUse" gradientTransform="matrix(-184 58 -184 -58 196 -13)">
<stop offset="0" stop-color="#D4FFEC"/>
<stop offset="0.478729" stop-color="#57F2CC"/>
<stop offset="1" stop-color="#4596FB"/>
</linearGradient>
<path id="path0_fill" d="M 33.648 19.344C 33.52 19.12 33.456 18.816 33.456 18.432C 33.456 18.016 33.488 17.552 33.552 17.04L 33.168 17.04L 30.912 30L 21.792 30L 27.072 0L 35.664 0L 40.56 10.656C 40.656 10.88 40.704 11.2 40.704 11.616C 40.704 12 40.672 12.448 40.608 12.96L 40.992 12.96L 43.296 0L 52.416 0L 47.136 30L 38.544 30L 33.648 19.344ZM 20.352 29.856L 0 27.696L 20.736 27.696L 20.352 29.856ZM 21.984 20.592L 1.632 18.432L 22.368 18.432L 21.984 20.592ZM 22.8 15.984L 2.448 13.824L 23.184 13.824L 22.8 15.984ZM 23.616 11.376L 3.264 9.216L 24 9.216L 23.616 11.376ZM 24.432 6.768L 4.08 4.608L 24.768 4.608L 24.432 6.768ZM 21.168 25.2L 0.816 23.04L 21.552 23.04L 21.168 25.2ZM 25.2 2.16L 4.896 0L 25.584 0L 25.2 2.16Z"/>
<path id="path1_fill" d="M 63.1961 18.588L 66.9041 18.588C 66.9761 17.988 66.9401 17.424 66.7961 16.896C 66.6761 16.344 66.4601 15.864 66.1481 15.456C 65.8601 15.048 65.4881 14.724 65.0321 14.484C 64.5761 14.244 64.0721 14.124 63.5201 14.124C 62.9201 14.124 62.3441 14.256 61.7921 14.52C 61.2401 14.76 60.7481 15.144 60.3161 15.672C 59.9081 16.176 59.5721 16.824 59.3081 17.616C 59.0681 18.384 58.9481 19.296 58.9481 20.352C 58.9481 22.464 59.4401 24.132 60.4241 25.356C 61.4081 26.556 62.6921 27.156 64.2761 27.156C 65.1161 27.156 65.9201 27.06 66.6881 26.868C 67.4801 26.652 68.3921 26.304 69.4241 25.824L 70.5761 28.812C 69.3281 29.412 68.1401 29.832 67.0121 30.072C 65.9081 30.312 64.8401 30.432 63.8081 30.432C 62.2721 30.432 60.9281 30.156 59.7761 29.604C 58.6241 29.052 57.6641 28.32 56.8961 27.408C 56.1281 26.472 55.5521 25.404 55.1681 24.204C 54.7841 23.004 54.5921 21.756 54.5921 20.46C 54.5921 18.996 54.8201 17.676 55.2761 16.5C 55.7321 15.324 56.3681 14.328 57.1841 13.512C 58.0241 12.672 58.9961 12.036 60.1001 11.604C 61.2281 11.172 62.4641 10.956 63.8081 10.956C 65.1041 10.956 66.2681 11.232 67.3001 11.784C 68.3561 12.312 69.1961 13.044 69.8201 13.98C 70.4681 14.916 70.8641 16.02 71.0081 17.292C 71.1521 18.54 70.9841 19.884 70.5041 21.324L 60.2801 21.324C 60.5441 20.556 60.9161 19.908 61.3961 19.38C 61.9001 18.852 62.5001 18.588 63.1961 18.588Z"/>
<path id="path2_fill" d="M 97.06 30L 92.38 30L 85.792 11.388L 90.472 11.388L 94.792 26.076L 99.076 11.388L 103.612 11.388L 97.06 30ZM 86.908 25.464L 85 30L 80.428 30L 73.876 11.388L 78.52 11.388L 82.84 26.076L 83.092 25.068L 85.972 17.364C 86.26 17.796 86.524 18.336 86.764 18.984C 87.004 19.608 87.172 20.292 87.268 21.036C 87.388 21.756 87.424 22.5 87.376 23.268C 87.328 24.036 87.172 24.768 86.908 25.464Z"/>
<path id="path3_fill" d="M 105.203 28.848L 106.247 25.86C 107.303 26.316 108.275 26.64 109.163 26.832C 110.051 27 110.879 27.084 111.647 27.084C 112.607 27.084 113.315 26.868 113.771 26.436C 114.227 26.004 114.455 25.5 114.455 24.924C 114.455 24.348 114.239 23.868 113.807 23.484C 113.375 23.1 112.835 22.752 112.187 22.44C 111.539 22.104 110.843 21.78 110.099 21.468C 109.355 21.132 108.659 20.748 108.011 20.316C 107.363 19.86 106.823 19.308 106.391 18.66C 105.959 18.012 105.743 17.196 105.743 16.212C 105.743 15.636 105.863 15.048 106.103 14.448C 106.343 13.824 106.715 13.272 107.219 12.792C 107.723 12.288 108.371 11.88 109.163 11.568C 109.955 11.232 110.915 11.064 112.043 11.064C 112.811 11.064 113.615 11.124 114.455 11.244C 115.295 11.364 116.267 11.616 117.371 12L 116.327 14.916C 115.463 14.652 114.731 14.472 114.131 14.376C 113.531 14.28 112.943 14.232 112.367 14.232C 111.623 14.232 111.023 14.4 110.567 14.736C 110.135 15.048 109.919 15.504 109.919 16.104C 109.919 16.656 110.135 17.124 110.567 17.508C 110.999 17.892 111.539 18.252 112.187 18.588C 112.835 18.9 113.531 19.224 114.275 19.56C 115.019 19.896 115.715 20.304 116.363 20.784C 117.011 21.24 117.551 21.804 117.983 22.476C 118.415 23.124 118.631 23.928 118.631 24.888C 118.631 25.68 118.451 26.412 118.091 27.084C 117.755 27.756 117.287 28.344 116.687 28.848C 116.111 29.328 115.439 29.7 114.671 29.964C 113.927 30.228 113.147 30.36 112.331 30.36C 111.395 30.36 110.351 30.276 109.199 30.108C 108.071 29.94 106.739 29.52 105.203 28.848Z"/>
<path id="path4_fill" d="M 131.833 27.12C 131.953 27.144 132.049 27.156 132.121 27.156C 132.217 27.156 132.325 27.156 132.445 27.156C 133.717 27.156 134.785 26.748 135.649 25.932C 136.513 25.116 136.945 24.024 136.945 22.656C 136.945 21.864 136.777 21.168 136.441 20.568C 136.105 19.968 135.649 19.464 135.073 19.056C 134.497 18.648 133.813 18.336 133.021 18.12C 132.229 17.904 131.377 17.796 130.465 17.796L 126.865 17.796L 126.865 30L 122.437 30L 122.437 4.188C 123.301 4.044 124.081 3.924 124.777 3.828C 125.473 3.708 126.133 3.612 126.757 3.54C 127.381 3.468 127.993 3.42 128.593 3.396C 129.193 3.372 129.817 3.36 130.465 3.36C 132.049 3.36 133.441 3.54 134.641 3.9C 135.841 4.26 136.837 4.764 137.629 5.412C 138.445 6.036 139.057 6.792 139.465 7.68C 139.873 8.544 140.077 9.504 140.077 10.56C 140.077 11.448 139.813 12.36 139.285 13.296C 138.781 14.232 138.085 14.976 137.197 15.528L 136.153 16.032L 137.161 16.284C 138.505 16.836 139.585 17.688 140.401 18.84C 141.217 19.992 141.625 21.252 141.625 22.62C 141.625 23.556 141.421 24.492 141.013 25.428C 140.605 26.34 140.017 27.168 139.249 27.912C 138.505 28.632 137.581 29.232 136.477 29.712C 135.397 30.168 134.173 30.396 132.805 30.396C 132.469 30.396 132.133 30.384 131.797 30.36C 131.485 30.36 131.161 30.336 130.825 30.288C 130.489 30.24 130.117 30.168 129.709 30.072C 129.301 30 128.833 29.904 128.305 29.784C 128.449 29.472 128.629 29.16 128.845 28.848C 129.061 28.512 129.313 28.212 129.601 27.948C 129.889 27.684 130.213 27.48 130.573 27.336C 130.957 27.168 131.377 27.096 131.833 27.12ZM 126.865 14.772L 130.465 14.772C 131.185 14.772 131.845 14.676 132.445 14.484C 133.069 14.268 133.609 13.98 134.065 13.62C 134.521 13.236 134.869 12.792 135.109 12.288C 135.373 11.76 135.505 11.196 135.505 10.596C 135.505 10.092 135.409 9.612 135.217 9.156C 135.025 8.676 134.713 8.256 134.281 7.896C 133.873 7.512 133.345 7.212 132.697 6.996C 132.073 6.756 131.329 6.636 130.465 6.636C 129.817 6.636 129.217 6.66 128.665 6.708C 128.113 6.732 127.513 6.78 126.865 6.852L 126.865 14.772Z"/>
<path id="path5_fill" d="M 150.555 2.712L 150.555 30L 146.199 30L 146.199 2.712L 150.555 2.712Z"/>
<path id="path6_fill" d="M 155.361 5.988C 155.361 5.22 155.613 4.584 156.117 4.08C 156.621 3.552 157.245 3.288 157.989 3.288C 158.757 3.288 159.393 3.552 159.897 4.08C 160.401 4.584 160.653 5.22 160.653 5.988C 160.653 6.732 160.401 7.368 159.897 7.896C 159.393 8.4 158.757 8.652 157.989 8.652C 157.245 8.652 156.621 8.4 156.117 7.896C 155.613 7.368 155.361 6.732 155.361 5.988ZM 160.221 30L 155.793 30L 155.793 11.388L 160.221 11.388L 160.221 30Z"/>
<path id="path7_fill" d="M 177.194 14.556L 175.394 14.556C 174.914 14.556 174.482 14.46 174.098 14.268C 173.738 14.076 173.426 13.836 173.162 13.548C 172.898 13.236 172.67 12.9 172.478 12.54C 172.286 12.156 172.13 11.772 172.01 11.388L 177.194 11.388L 177.194 14.556ZM 166.61 22.98L 166.61 14.556L 163.514 14.556L 163.514 12.18L 166.61 11.388L 166.61 6.852L 170.786 5.484L 170.786 23.124C 170.786 24.348 171.038 25.332 171.542 26.076C 172.07 26.82 172.766 27.192 173.63 27.192C 174.014 27.192 174.422 27.156 174.854 27.084C 175.31 26.988 175.85 26.844 176.474 26.652L 177.41 29.532C 176.498 29.844 175.73 30.072 175.106 30.216C 174.506 30.36 173.906 30.432 173.306 30.432C 171.122 30.432 169.454 29.796 168.302 28.524C 167.174 27.228 166.61 25.38 166.61 22.98Z"/>
<path id="path8_fill" d="M 181.094 14.448L 181.094 11.388L 194.27 11.388L 194.27 13.224L 186.134 25.68C 186.062 25.8 185.99 25.92 185.918 26.04C 185.846 26.136 185.774 26.244 185.702 26.364L 185.126 26.976L 185.954 26.868L 194.414 26.868L 194.414 30L 180.05 30L 180.05 28.164L 188.726 14.952L 189.266 14.34L 188.51 14.448L 181.094 14.448Z"/>
</defs>
</svg>
